<svg xmlns="http://www.w3.org/2000/svg" xmlns:xlink="http://www.w3.org/1999/xlink" width="500" zoomAndPan="magnify" viewBox="0 0 375 374.999991" height="500" preserveAspectRatio="xMidYMid meet" version="1.2"><g id="8b4b7e2da5"><path style=" stroke:none;fill-rule:nonzero;fill:#c49b53;fill-opacity:1;" d="M 330.75 240.640625 C 330.589844 239.664062 330.183594 238.722656 329.929688 237.777344 C 329.238281 235.890625 328.578125 233.941406 327.699219 232.148438 C 327.039062 231.015625 326.1875 230.261719 325.464844 229.160156 C 324.554688 228.027344 323.796875 226.769531 323.105469 225.511719 C 322.539062 224.253906 322.351562 222.839844 321.878906 221.546875 C 320.871094 219.0625 318.640625 217.492188 316.816406 215.667969 C 314.835938 213.023438 314.140625 210.003906 310.492188 209.125 C 308.890625 208.683594 307.316406 208.96875 305.679688 208.589844 C 305.304688 208.433594 305.273438 208.023438 305.304688 207.679688 C 305.335938 207.144531 305.429688 206.609375 305.679688 206.136719 C 306.089844 205.351562 306.65625 204.628906 307.285156 204.03125 C 308.136719 203.273438 309.171875 202.707031 309.992188 201.859375 C 310.871094 201.011719 311.375 199.910156 311.910156 198.839844 C 312.570312 197.425781 313.292969 195.976562 313.542969 194.4375 C 313.765625 193.335938 313.574219 192.234375 313.449219 191.101562 C 313.324219 189.339844 312.601562 187.675781 311.4375 186.320312 C 310.808594 185.628906 310.210938 184.8125 309.265625 184.5625 C 308.605469 184.371094 307.914062 184.339844 307.316406 184.027344 C 306.53125 183.492188 305.902344 182.738281 305.117188 182.171875 C 303.984375 181.195312 302.757812 180.347656 301.96875 179.058594 C 301.246094 177.988281 301.058594 176.699219 300.773438 175.472656 C 300.460938 174.246094 300.050781 173.019531 300.144531 171.726562 C 300.144531 169.902344 300.144531 168.046875 300.523438 166.253906 C 300.964844 164.054688 301.84375 162.007812 302.441406 159.839844 C 302.695312 158.550781 302.597656 157.132812 302.191406 155.875 C 301.9375 155.308594 301.5 154.871094 301.339844 154.273438 C 301.402344 153.078125 301.71875 151.914062 302.628906 151.0625 C 303.542969 149.996094 304.800781 149.238281 305.523438 147.980469 C 306.058594 147.132812 306.3125 146.15625 306.65625 145.214844 C 307.097656 144.050781 307.757812 142.792969 308.261719 141.628906 C 308.734375 140.652344 309.203125 139.679688 309.738281 138.703125 C 310.054688 138.199219 310.335938 137.664062 310.242188 137.035156 C 310.210938 136.34375 309.925781 135.714844 309.613281 135.117188 C 309.171875 134.175781 308.480469 133.386719 307.632812 132.820312 C 306.214844 131.53125 304.582031 130.558594 302.726562 130.085938 C 300.710938 129.488281 298.449219 129.207031 296.464844 129.992188 C 295.082031 130.496094 293.980469 131.375 292.535156 131.816406 C 291.023438 132.097656 289.484375 131.910156 287.941406 131.972656 C 286.246094 131.910156 284.921875 133.042969 283.539062 133.859375 C 282.878906 134.207031 282.1875 134.363281 281.496094 134.582031 C 280.898438 134.804688 280.332031 135.054688 279.703125 135.179688 C 278.351562 135.464844 277.058594 134.773438 275.707031 134.835938 C 274.230469 134.835938 272.75 134.898438 271.304688 135.117188 C 269.921875 135.433594 268.597656 136.03125 267.5 136.910156 C 265.738281 138.199219 265.203125 139.050781 262.84375 138.390625 C 261.964844 138.230469 261.144531 137.855469 260.421875 137.351562 C 259.101562 136.4375 257.8125 135.464844 256.679688 134.332031 C 255.765625 133.355469 254.949219 132.320312 254.101562 131.28125 C 252.496094 129.140625 250.453125 127.347656 248.628906 125.398438 C 247.148438 123.859375 245.386719 122.632812 243.53125 121.5625 C 242.496094 120.996094 241.363281 120.492188 240.136719 120.460938 C 239.570312 120.460938 239.003906 120.460938 238.4375 120.460938 C 237.398438 120.460938 236.359375 120.429688 235.355469 120.242188 C 233.78125 119.832031 232.242188 119.265625 230.636719 119.046875 C 228.53125 118.761719 226.359375 119.359375 224.628906 120.617188 C 224.09375 121.027344 223.558594 121.53125 222.835938 121.625 C 221.390625 121.5625 220.007812 121.152344 218.558594 121.152344 C 210.097656 120.808594 211.796875 125.398438 201.386719 124.015625 C 200.789062 123.921875 200.160156 123.890625 199.59375 123.699219 C 198.585938 123.324219 197.738281 122.601562 196.984375 121.84375 C 195.628906 120.617188 194.371094 119.296875 192.988281 118.132812 C 191.855469 117.066406 190.503906 116.4375 189.339844 115.367188 C 188.867188 114.988281 188.492188 114.453125 188.207031 113.917969 C 187.578125 113.070312 187.234375 112.125 187.011719 111.089844 C 186.605469 108.824219 186.605469 106.464844 187.171875 104.230469 C 187.578125 102.125 188.742188 100.082031 188.082031 97.910156 C 187.578125 96.117188 186.667969 94.417969 185.410156 93.035156 C 184.023438 91.492188 182.230469 90.425781 181.066406 88.664062 C 179.839844 87.152344 179.023438 85.390625 178.175781 83.695312 C 177.609375 82.59375 176.855469 81.585938 176.257812 80.484375 C 175.785156 79.699219 175.28125 78.882812 174.558594 78.253906 C 173.960938 77.75 173.140625 77.59375 172.417969 77.371094 C 171.632812 77.121094 170.941406 76.742188 170.089844 76.617188 C 169.273438 76.492188 168.457031 76.773438 167.667969 76.996094 C 166.191406 77.277344 164.808594 77.84375 163.421875 78.441406 C 162.890625 78.691406 162.355469 78.914062 161.851562 79.195312 C 161.945312 78 163.234375 77.339844 163.988281 76.492188 C 165.058594 75.546875 165.972656 74.445312 166.726562 73.25 C 168.171875 71.175781 168.832031 68.691406 169.429688 66.269531 C 169.714844 64.761719 169.964844 63.1875 169.933594 61.644531 C 169.808594 60.609375 169.304688 59.695312 168.960938 58.722656 C 168.457031 57.304688 168.644531 55.671875 168.929688 54.191406 C 169.210938 52.554688 169.527344 50.921875 169.902344 49.285156 C 170.375 47.617188 170.5625 45.855469 171.285156 44.285156 C 172.734375 41.675781 174.433594 39.1875 176.035156 36.640625 C 178.898438 32.363281 178.679688 34.910156 181.035156 33.023438 C 182.578125 31.515625 183.710938 29.628906 184.8125 27.773438 C 185.660156 26.453125 186.574219 25.128906 187.453125 23.808594 C 188.835938 21.890625 190.566406 19.941406 192.863281 19.21875 C 193.742188 19.058594 194.65625 19.027344 195.535156 18.871094 C 197.390625 18.460938 199.277344 17.925781 200.945312 17.015625 C 202.863281 16.007812 204.40625 14.53125 206.105469 13.179688 C 207.898438 12.421875 209.722656 10.945312 209.53125 8.839844 C 209.753906 6.605469 208.304688 4.65625 206.734375 3.175781 C 205.601562 2.234375 204.058594 2.171875 202.738281 1.667969 C 201.921875 1.414062 201.199219 1.007812 200.472656 0.597656 C 199.59375 0.316406 198.585938 0.09375 197.582031 0 C 195.914062 0.0625 194.246094 0.753906 192.957031 1.761719 C 192.265625 2.296875 192.078125 3.175781 191.667969 3.929688 C 191.382812 4.433594 191.132812 4.96875 190.691406 5.347656 C 189.496094 5.820312 188.207031 5.753906 186.949219 5.914062 C 185.441406 5.914062 183.804688 6.699219 183.648438 8.367188 C 183.488281 9.058594 183.804688 9.78125 183.585938 10.472656 C 182.859375 12.109375 181.792969 13.648438 180.535156 14.941406 C 179.179688 16.070312 177.578125 16.921875 175.910156 17.550781 C 174.496094 18.023438 173.015625 18.460938 171.664062 19.1875 C 169.273438 20.445312 167.199219 22.207031 165.183594 23.964844 C 163.644531 25.445312 162.261719 27.046875 160.71875 28.527344 C 158.265625 31.230469 155.308594 32.207031 151.785156 32.617188 C 149.710938 32.867188 147.570312 33.183594 145.496094 32.648438 C 144.835938 32.488281 144.082031 32.554688 143.453125 32.332031 C 142.824219 32.050781 142.097656 31.890625 141.46875 32.238281 C 140.179688 32.929688 138.578125 33.496094 137.882812 34.847656 C 137.601562 35.507812 137.601562 36.234375 137.507812 36.957031 C 137.128906 38.558594 136.15625 39.945312 135.085938 41.171875 C 134.425781 42.019531 134.363281 43.46875 133.074219 43.59375 C 132.285156 40.761719 130.902344 40.164062 128.230469 39.535156 C 126.277344 39.316406 124.046875 38.6875 122.253906 39.820312 C 120.207031 41.078125 119.109375 43.339844 117.410156 45.007812 C 116.589844 46.015625 115.332031 46.421875 114.359375 47.273438 C 113.570312 47.996094 113.039062 48.941406 112.3125 49.726562 C 111.78125 50.292969 111.277344 50.859375 110.773438 51.457031 C 109.136719 53.25 108.257812 55.703125 108.351562 58.125 C 108.164062 59.476562 107.1875 60.578125 106.527344 61.742188 C 105.015625 64.035156 105.835938 64.539062 106.117188 66.867188 C 106.179688 67.777344 106.054688 68.660156 105.898438 69.539062 C 105.710938 70.421875 105.457031 71.363281 105.835938 72.246094 C 106.085938 72.875 106.558594 73.378906 107.0625 73.816406 C 107.46875 74.070312 107.660156 74.320312 107.660156 74.824219 C 107.753906 76.050781 107.375 77.371094 106.621094 78.347656 C 105.804688 78.757812 104.828125 78.597656 103.949219 78.851562 C 102.941406 79.132812 101.871094 79.257812 100.960938 79.792969 C 99.765625 80.550781 98.726562 81.460938 97.59375 82.308594 C 97.089844 82.625 96.683594 83.066406 96.335938 83.535156 C 95.894531 83.976562 95.457031 84.449219 95.203125 85.046875 C 94.765625 85.988281 94.828125 87.089844 94.386719 88.035156 C 94.039062 88.632812 93.539062 89.074219 93.097656 89.605469 C 92.5 90.582031 91.902344 91.558594 91.242188 92.46875 C 89.761719 94.511719 88.128906 96.433594 86.304688 98.160156 C 85.769531 98.570312 85.265625 99.042969 84.667969 99.355469 C 83.722656 99.828125 82.65625 100.019531 81.804688 100.648438 C 81.332031 100.960938 80.734375 101.210938 80.421875 101.714844 C 80.011719 102.441406 79.824219 103.351562 79.949219 104.167969 C 80.265625 105.300781 81.617188 105.050781 82.527344 105.113281 C 83.851562 105.207031 83.976562 107.503906 84.164062 108.507812 C 84.226562 109.484375 84.289062 110.460938 84.289062 111.433594 C 84.226562 112.09375 83.945312 112.691406 83.785156 113.289062 C 83.597656 113.949219 83.535156 114.613281 83.316406 115.242188 C 83 115.964844 82.65625 116.71875 82.339844 117.441406 C 81.996094 117.472656 81.617188 117.160156 81.492188 116.875 C 81.429688 116.53125 81.710938 116.246094 81.742188 115.933594 C 81.898438 115.273438 81.960938 114.578125 81.996094 113.886719 C 82.089844 112.882812 81.960938 111.90625 81.398438 111.058594 C 81.019531 110.175781 80.328125 109.453125 79.574219 108.886719 C 78 107.753906 76.050781 107.503906 74.257812 106.90625 C 73.722656 106.589844 73.125 106.277344 72.808594 105.742188 C 72.308594 104.925781 71.710938 104.167969 71.175781 103.351562 C 70.292969 102.25 68.59375 101.558594 67.242188 102.15625 C 66.488281 102.597656 66.269531 103.601562 66.457031 104.421875 C 66.835938 105.554688 67.589844 106.558594 68.21875 107.597656 C 69.980469 110.050781 71.710938 112.820312 71.679688 115.933594 C 71.582031 116.5625 71.238281 117.097656 71.015625 117.664062 C 70.578125 118.226562 70.042969 118.761719 69.507812 119.234375 C 68.660156 120.085938 68.910156 121.34375 68.753906 122.410156 C 68.628906 123.007812 68.3125 123.511719 67.964844 124.015625 C 67.273438 124.992188 66.457031 125.902344 65.386719 126.46875 C 64.882812 125.242188 64.191406 123.605469 62.683594 123.480469 C 62.273438 123.417969 61.863281 123.511719 61.582031 123.796875 C 60.511719 124.960938 60.734375 126.625 60.796875 128.074219 C 60.765625 129.140625 60.039062 130.085938 59.664062 131.09375 C 59.253906 132.003906 59.066406 133.011719 59.097656 133.984375 C 59.003906 135.179688 59.410156 136.40625 60.230469 137.320312 C 60.921875 138.042969 61.707031 138.546875 62.210938 139.425781 C 62.589844 140.652344 62.367188 141.976562 62.398438 143.265625 C 62.304688 144.207031 62.492188 145.152344 63.25 145.78125 C 64.066406 146.441406 65.105469 146.785156 65.859375 147.511719 C 67.464844 149.207031 68.59375 149.964844 70.074219 147.636719 C 71.269531 148.769531 71.644531 150.5 71.710938 152.101562 C 71.804688 153.359375 71.929688 154.648438 71.929688 155.90625 C 71.804688 156.441406 71.113281 156.695312 70.890625 157.230469 C 70.546875 157.921875 70.453125 158.738281 70.355469 159.492188 C 70.324219 160.71875 71.050781 161.820312 71.550781 162.859375 C 72.527344 164.589844 73.941406 166.066406 74.507812 168.015625 C 74.761719 168.773438 74.824219 169.558594 74.824219 170.3125 C 74.792969 170.816406 74.195312 170.972656 73.785156 171.035156 C 71.644531 171.351562 70.546875 173.082031 70.609375 175.1875 C 70.796875 176.636719 72.085938 177.515625 73 178.523438 C 73.691406 179.308594 74.257812 180.253906 74.445312 181.289062 C 74.917969 183.367188 74.601562 185.566406 75.167969 187.613281 C 75.734375 190.316406 76.773438 192.894531 77.085938 195.632812 C 77.121094 196.984375 77.402344 198.335938 76.332031 199.40625 C 75.640625 200.097656 74.761719 200.695312 74.351562 201.640625 C 73.847656 203.273438 73.972656 205.066406 74.445312 206.703125 C 74.730469 207.519531 75.074219 208.402344 75.765625 209 C 76.144531 209.28125 76.523438 209.597656 76.960938 209.816406 C 77.589844 210.039062 78.21875 209.691406 78.722656 209.3125 C 78.785156 211.484375 80.769531 212.300781 82.65625 212.144531 C 82.8125 213.023438 82.433594 213.84375 82.121094 214.660156 C 81.835938 215.476562 81.617188 216.296875 81.300781 217.082031 C 80.894531 217.867188 80.203125 218.433594 79.636719 219.09375 C 79.070312 219.691406 78.753906 220.480469 78.21875 221.078125 C 76.394531 223.308594 74.570312 225.542969 73.4375 228.246094 C 72.652344 229.601562 72.148438 231.078125 71.992188 232.652344 C 71.710938 234.726562 71.613281 236.992188 70.167969 238.660156 C 69.445312 239.695312 68.691406 240.953125 67.273438 241.082031 C 65.921875 241.394531 64.570312 241.175781 63.25 240.859375 C 62.179688 240.671875 61.078125 240.671875 60.007812 240.890625 C 58.246094 241.207031 56.582031 242.023438 55.132812 243.09375 C 54.253906 243.628906 53.5 244.351562 52.933594 245.199219 C 52.144531 246.300781 51.613281 247.558594 51.203125 248.847656 C 50.636719 250.578125 50.039062 252.339844 50.132812 254.195312 C 50.480469 256.082031 52.304688 257.152344 53.5625 258.441406 C 54 258.976562 54.222656 259.605469 54.378906 260.234375 C 54.191406 260.707031 54.285156 261.273438 54.222656 261.777344 C 54.191406 262.027344 54 262.214844 53.90625 262.4375 C 52.933594 264.355469 52.273438 263.539062 50.699219 262.78125 C 49.285156 262.214844 47.238281 262.027344 46.359375 263.539062 C 45.382812 265.046875 44.753906 266.746094 44.472656 268.507812 C 44.28125 269.511719 43.90625 270.738281 44.503906 271.652344 C 45.195312 272.34375 46.140625 272.785156 46.925781 273.382812 C 48.402344 274.484375 49.660156 275.804688 51.109375 277 C 52.585938 278.257812 54.441406 278.917969 56.328125 279.167969 C 57.714844 279.292969 59.128906 279.261719 60.449219 279.796875 C 62.179688 280.332031 63.46875 281.714844 65.199219 282.25 C 66.109375 282.597656 67.054688 282.941406 67.996094 283.226562 C 69.351562 283.761719 70.734375 284.359375 72.179688 284.484375 C 73.40625 284.515625 74.601562 284.296875 75.796875 284.359375 C 76.425781 284.390625 77.152344 284.265625 77.75 284.578125 C 78.347656 285.050781 78.410156 285.867188 78.722656 286.527344 C 78.945312 287.03125 79.226562 287.535156 79.574219 287.976562 C 80.265625 288.917969 81.238281 289.546875 82.214844 290.175781 C 82.96875 290.867188 83.597656 291.71875 84.480469 292.222656 C 86.082031 293.417969 87.96875 293.792969 89.921875 293.417969 C 90.738281 293.289062 91.523438 293.039062 92.34375 293.164062 C 93.222656 293.226562 93.976562 293.792969 94.859375 293.917969 C 96.117188 294.296875 97.46875 294.296875 98.757812 294.484375 C 99.921875 294.582031 100.929688 293.824219 102.0625 293.855469 C 103.820312 294.234375 105.742188 294.265625 107.21875 293.101562 C 108.476562 292.03125 108.726562 289.832031 110.519531 289.421875 C 112.375 288.792969 113.824219 289.578125 115.082031 290.902344 C 116.464844 292 117.816406 293.226562 119.453125 293.984375 C 123.953125 296.65625 123.574219 295.429688 128.199219 295.429688 C 128.796875 295.460938 129.550781 295.710938 130.117188 295.996094 C 130.808594 296.277344 131.5 296.5 132.191406 296.71875 C 133.199219 297.003906 134.234375 297.222656 135.304688 297.222656 C 136.4375 297.253906 137.539062 296.9375 138.671875 297.035156 C 140.464844 297.160156 142.003906 298.292969 143.734375 298.699219 C 145.214844 299.140625 147.101562 298.007812 148.328125 299.171875 C 149.113281 300.085938 149.523438 301.34375 150.558594 302.066406 C 151.316406 302.539062 152.257812 302.601562 153.074219 302.882812 C 154.867188 303.511719 156.535156 304.800781 157.195312 306.625 C 157.511719 307.414062 157.480469 308.292969 157.667969 309.109375 C 157.984375 310.464844 158.644531 311.722656 159.429688 312.855469 C 160.089844 313.796875 161.160156 314.363281 162.132812 314.898438 C 163.265625 315.433594 164.460938 315.714844 165.6875 315.84375 C 166.851562 316.125 168.140625 316.25 169.273438 316.691406 C 170.3125 317.226562 171.066406 318.167969 172.199219 318.546875 C 173.519531 318.863281 174.902344 319.019531 175.972656 319.898438 C 176.855469 320.71875 177.167969 321.945312 177.953125 322.824219 C 178.519531 323.640625 179.527344 324.050781 180.15625 324.804688 C 180.472656 325.464844 180.3125 326.222656 180.566406 326.914062 C 180.910156 327.886719 181.289062 328.988281 182.042969 329.742188 C 182.890625 330.59375 184.121094 331.066406 185.3125 331.035156 C 186.007812 331 186.699219 330.90625 187.328125 331.128906 C 188.050781 331.441406 188.648438 332.070312 188.929688 332.792969 C 189.558594 335.058594 188.617188 337.417969 189.089844 339.714844 C 189.496094 341.316406 190.820312 342.671875 192.453125 343.078125 C 195.097656 343.394531 197.738281 342.828125 200.347656 342.511719 C 201.984375 342.199219 203.621094 341.757812 205.316406 341.820312 C 208.085938 342.167969 209.53125 343.675781 212.488281 342.449219 C 214.40625 342.011719 215.289062 340.15625 216.578125 338.894531 C 217.300781 338.296875 218.246094 338.015625 219 337.449219 C 219.722656 336.882812 220.445312 336.253906 221.203125 335.71875 C 222.742188 334.714844 224.660156 335.65625 226.171875 336.285156 C 226.988281 336.601562 227.773438 336.789062 228.59375 337.136719 C 229.691406 337.765625 231.015625 338.015625 232.273438 338.015625 C 233.9375 337.921875 235.605469 337.574219 237.179688 336.945312 C 238.28125 336.410156 239.097656 335.4375 239.945312 334.585938 C 240.511719 333.800781 241.394531 333.203125 242.398438 333.488281 C 243.847656 333.925781 245.449219 334.273438 246.644531 335.28125 C 247.496094 336.128906 248.3125 336.976562 249.445312 337.449219 C 250.765625 337.890625 252.214844 337.386719 253.566406 337.734375 C 254.070312 338.171875 254.476562 338.644531 254.980469 339.085938 C 256.238281 340.25 257.96875 340.785156 259.636719 340.972656 C 260.390625 341.003906 261.238281 340.847656 261.964844 341.097656 C 261.867188 341.539062 261.804688 342.011719 261.523438 342.386719 C 260.609375 344.964844 259.730469 347.578125 258.566406 350.0625 C 257.875 351.289062 257.277344 352.546875 256.425781 353.679688 C 255.828125 354.652344 255.390625 355.691406 254.761719 356.667969 C 254.164062 357.671875 253.816406 358.804688 253.375 359.875 C 252.777344 361.132812 252.402344 362.453125 251.835938 363.742188 C 250.953125 365.378906 250.828125 367.488281 253 368.019531 C 253.785156 368.242188 254.445312 368.679688 255.230469 368.871094 C 255.925781 368.996094 256.679688 368.996094 257.339844 368.746094 C 258.316406 368.179688 259.667969 367.421875 260.671875 368.398438 C 261.367188 369.3125 261.804688 370.410156 262.527344 371.292969 C 263.125 371.921875 263.820312 372.425781 264.386719 373.085938 C 264.761719 373.429688 265.265625 373.621094 265.738281 373.839844 C 266.273438 374.027344 266.773438 374.375 267.339844 374.46875 C 269.261719 374.878906 269.542969 372.992188 269.730469 371.667969 C 270.234375 369.5625 270.644531 367.421875 270.988281 365.253906 C 271.148438 363.648438 271.554688 362.109375 271.714844 360.472656 C 271.902344 358.523438 272.058594 356.539062 272.246094 354.589844 C 272.910156 348.804688 273.285156 342.984375 273.507812 337.167969 C 273.789062 333.894531 273.851562 330.625 274.230469 327.351562 C 274.324219 324.554688 274.386719 321.722656 274.480469 318.925781 C 274.703125 316.535156 274.984375 314.175781 275.140625 311.785156 C 275.363281 309.898438 275.488281 308.011719 275.394531 306.125 C 275.234375 303.605469 275.109375 300.902344 273.789062 298.699219 C 273.066406 297.535156 271.746094 297.066406 270.707031 296.246094 C 269.542969 295.367188 269.164062 294.203125 269.292969 292.789062 C 269.261719 291.433594 269.386719 290.019531 268.820312 288.761719 C 267.53125 286.589844 265.171875 285.113281 262.78125 284.390625 C 261.585938 284.074219 260.296875 283.980469 259.164062 283.507812 C 258.316406 282.660156 258.535156 281.214844 258.285156 280.113281 C 258.0625 278.695312 257.589844 277.3125 257.371094 275.898438 C 257.214844 274.546875 257.183594 273.160156 257.023438 271.808594 C 256.773438 270.488281 256.523438 269.167969 256.679688 267.785156 C 256.679688 267.4375 256.773438 267.089844 257.023438 266.871094 C 257.464844 266.367188 258.0625 265.992188 258.691406 265.707031 C 259.320312 265.550781 259.980469 265.550781 260.578125 265.363281 C 261.835938 265.296875 262.90625 264.730469 264.070312 264.292969 C 265.296875 263.882812 266.617188 263.472656 267.875 263.160156 C 268.632812 262.941406 269.292969 263.472656 269.984375 263.726562 C 272.5625 264.605469 274.136719 264.796875 275.960938 262.46875 C 277.59375 260.265625 277.058594 257.402344 275.992188 255.078125 C 275.488281 253.976562 275.015625 252.625 273.945312 251.960938 C 273.441406 251.617188 272.875 251.332031 272.214844 251.398438 C 271.367188 251.398438 270.519531 251.429688 269.699219 251.523438 C 267.371094 251.523438 265.046875 251.804688 262.71875 251.648438 C 261.523438 250.578125 261.144531 249.007812 260.957031 247.496094 C 260.703125 246.050781 260.515625 244.601562 260.171875 243.15625 C 260.042969 242.464844 259.980469 241.773438 259.824219 241.113281 C 259.761719 240.671875 259.855469 240.230469 260.011719 239.789062 C 260.203125 239.507812 260.578125 239.476562 260.863281 239.320312 C 261.144531 239.191406 261.398438 238.972656 261.742188 238.878906 C 263.976562 238.46875 266.273438 238.878906 268.503906 239.097656 C 271.585938 239.289062 274.636719 238.660156 277.6875 238.40625 C 279.417969 238.125 281.179688 238.09375 282.941406 238 C 284.984375 237.871094 287 237.527344 289.011719 237.210938 C 291.84375 236.929688 295.019531 236.867188 297.316406 234.980469 C 299.421875 233.941406 296.84375 231.394531 299.296875 231.109375 C 299.894531 231.078125 300.398438 231.332031 300.773438 231.800781 C 301.6875 232.777344 302.820312 233.5625 304.109375 233.941406 C 306.027344 234.476562 308.167969 232.964844 309.046875 231.332031 C 309.328125 230.703125 309.519531 230.039062 309.738281 229.378906 C 310.714844 226.925781 311.4375 224.253906 313.167969 222.242188 C 313.765625 221.769531 314.582031 222.367188 315.117188 222.648438 C 317.035156 223.8125 317.601562 226.078125 318.609375 227.933594 C 320.308594 231.265625 322.132812 234.539062 323.074219 238.21875 C 323.515625 239.824219 323.671875 241.488281 323.988281 243.125 C 324.207031 243.941406 324.300781 244.949219 324.960938 245.546875 C 325.621094 246.082031 326.628906 245.859375 327.414062 245.765625 C 328.957031 245.546875 330.8125 244.570312 331 242.875 C 330.8125 242.179688 330.875 241.394531 330.75 240.640625 Z M 329.238281 242.9375 C 328.578125 244.132812 327.070312 244.382812 325.78125 244.382812 C 324.992188 242.117188 324.992188 239.695312 324.300781 237.433594 C 323.328125 234.160156 321.816406 231.078125 320.210938 228.089844 C 319.332031 226.457031 318.734375 224.695312 317.695312 223.152344 C 316.816406 222.019531 315.589844 221.046875 314.171875 220.667969 C 312.160156 220.101562 311.027344 222.175781 310.273438 223.6875 C 309.519531 225.101562 308.984375 226.644531 308.417969 228.152344 C 307.976562 229.160156 307.851562 230.355469 307.160156 231.234375 C 306.375 232.054688 305.148438 232.996094 303.984375 232.367188 C 303.417969 232.085938 302.851562 231.800781 302.378906 231.363281 C 301.78125 230.828125 301.277344 230.105469 300.492188 229.820312 C 297.691406 229.003906 295.929688 230.765625 296.527344 233.59375 C 294.296875 235.542969 291.121094 235.449219 288.320312 235.765625 C 285.519531 236.332031 282.691406 236.550781 279.828125 236.644531 C 276.054688 236.929688 272.3125 237.746094 268.535156 237.621094 C 266.144531 237.335938 263.691406 236.960938 261.300781 237.402344 C 260.609375 237.558594 259.792969 238.0625 259.101562 238.40625 C 257.621094 239.507812 258.09375 241.550781 258.347656 243.125 C 258.945312 245.546875 259.039062 248.09375 259.824219 250.453125 C 259.980469 251.050781 260.296875 251.585938 260.703125 252.027344 C 261.082031 252.433594 261.367188 252.9375 261.867188 253.15625 C 262.246094 253.316406 262.65625 253.316406 263.0625 253.316406 C 264.949219 253.378906 266.839844 253.1875 268.726562 253.15625 C 269.667969 253.1875 270.613281 253 271.585938 253.03125 C 271.839844 253.03125 272.121094 253.03125 272.375 253.03125 C 272.625 253.1875 272.878906 253.316406 273.128906 253.503906 C 273.914062 254.511719 274.324219 255.738281 274.796875 256.902344 C 275.265625 258.316406 275.519531 259.921875 274.734375 261.242188 C 274.574219 261.585938 274.292969 261.839844 274.007812 262.121094 C 273.632812 262.59375 273.097656 262.90625 272.5 262.84375 C 271.210938 262.75 270.046875 262.121094 268.851562 261.714844 C 267.875 261.460938 266.902344 261.871094 265.957031 262.089844 C 264.449219 262.53125 262.96875 263.003906 261.523438 263.664062 C 260.863281 263.851562 260.171875 263.882812 259.476562 264.070312 C 257.78125 264.132812 256.175781 265.109375 255.265625 266.523438 C 254.699219 267.972656 254.886719 269.765625 255.167969 271.273438 C 255.484375 272.910156 255.453125 274.578125 255.671875 276.210938 C 255.894531 277.785156 256.425781 279.261719 256.648438 280.835938 C 256.835938 282.34375 256.898438 284.484375 258.535156 285.144531 C 259.886719 285.679688 261.367188 285.742188 262.75 286.214844 C 264.449219 286.84375 265.988281 287.882812 267.121094 289.296875 C 268.160156 291.277344 267.027344 293.730469 268.035156 295.742188 C 268.566406 296.8125 269.511719 297.664062 270.519531 298.261719 C 271.242188 298.699219 272.027344 299.140625 272.46875 299.894531 C 272.941406 300.746094 273.191406 301.71875 273.316406 302.695312 C 273.820312 305.527344 273.820312 308.417969 273.476562 311.28125 C 273.347656 313.230469 273.160156 315.246094 272.972656 317.195312 C 272.71875 319.175781 272.71875 321.1875 272.65625 323.171875 C 272.625 325.496094 272.5625 327.824219 272.28125 330.152344 C 272.183594 331.851562 272.152344 333.550781 271.964844 335.246094 C 271.714844 339.777344 271.585938 344.242188 271.148438 348.804688 C 270.894531 352.703125 270.328125 356.574219 270.046875 360.472656 C 269.667969 363.019531 269.261719 365.566406 268.820312 368.117188 C 268.664062 369.121094 268.410156 370.066406 268.160156 371.039062 C 267.96875 371.730469 268.003906 372.519531 267.71875 373.148438 C 266.902344 372.992188 266.113281 372.519531 265.359375 372.171875 C 264.761719 371.511719 264.007812 371.007812 263.441406 370.285156 C 262.433594 368.777344 261.773438 366.699219 259.667969 366.574219 C 257.277344 366.292969 256.773438 368.585938 254.289062 367.046875 C 253.785156 366.824219 253.15625 366.761719 252.746094 366.417969 C 252.558594 365.726562 252.9375 365.03125 253.21875 364.433594 C 254.070312 362.296875 254.855469 360.15625 255.796875 358.050781 C 256.300781 357.171875 256.898438 356.132812 257.371094 355.1875 C 258.09375 354.085938 258.785156 352.957031 259.382812 351.792969 C 260.640625 349.558594 261.460938 347.074219 262.339844 344.652344 C 262.496094 344.148438 262.625 343.675781 262.84375 343.207031 C 263.125 342.796875 263.285156 342.324219 263.316406 341.820312 C 263.347656 341.664062 263.410156 341.476562 263.441406 341.285156 C 263.503906 341.035156 263.503906 340.785156 263.316406 340.53125 C 263.222656 340.40625 263.125 340.34375 263 340.28125 C 262.371094 339.777344 261.523438 339.621094 260.738281 339.589844 C 259.039062 339.652344 257.183594 339.273438 255.894531 338.078125 C 255.105469 337.480469 254.570312 336.441406 253.535156 336.316406 C 252.308594 336.003906 250.953125 336.472656 249.726562 336.097656 C 248.34375 335.4375 247.589844 333.957031 246.175781 333.359375 C 244.539062 332.730469 242.808594 331.851562 241.015625 332.070312 C 238.8125 332.417969 238.089844 335.027344 236.109375 335.78125 C 234.035156 336.472656 231.738281 336.976562 229.628906 336.160156 C 228.84375 335.6875 227.964844 335.46875 227.113281 335.152344 C 225.132812 334.335938 222.804688 333.203125 220.699219 334.273438 C 219.628906 334.839844 218.78125 335.71875 217.804688 336.441406 C 217.082031 336.882812 216.261719 337.167969 215.601562 337.699219 C 214.503906 338.582031 213.90625 339.902344 212.773438 340.71875 C 211.765625 341.222656 210.570312 341.601562 209.4375 341.445312 C 208.085938 341.097656 206.765625 340.46875 205.347656 340.375 C 204.21875 340.34375 203.085938 340.46875 201.984375 340.65625 C 199.78125 341.191406 197.550781 341.445312 195.316406 341.664062 C 194.46875 341.664062 193.367188 341.820312 192.484375 341.601562 C 190.628906 340.941406 190.191406 339.085938 190.472656 337.324219 C 190.503906 335.5 190.914062 333.519531 190.0625 331.820312 C 189.339844 330.53125 188.019531 329.523438 186.476562 329.492188 C 185.691406 329.429688 184.875 329.679688 184.085938 329.367188 C 182.734375 328.957031 182.261719 327.574219 181.886719 326.347656 C 181.730469 325.527344 181.792969 324.617188 181.257812 323.925781 C 180.503906 322.980469 179.308594 322.511719 178.679688 321.472656 C 177.984375 320.371094 177.453125 319.082031 176.257812 318.421875 C 175.0625 317.632812 173.644531 317.476562 172.324219 317.132812 C 171.253906 316.535156 170.40625 315.527344 169.179688 315.179688 C 168.769531 315.054688 168.332031 314.992188 167.890625 314.898438 C 166.570312 314.582031 165.246094 314.425781 163.925781 314.144531 C 161.976562 313.546875 160.46875 312.601562 159.648438 310.621094 C 158.894531 309.363281 158.988281 307.882812 158.613281 306.53125 C 158.078125 304.738281 156.757812 303.199219 155.089844 302.316406 C 154.019531 301.65625 152.761719 301.375 151.566406 301.027344 C 150.90625 300.839844 150.652344 300.117188 150.277344 299.582031 C 149.710938 298.730469 149.144531 297.757812 148.136719 297.410156 C 146.753906 296.9375 145.308594 297.472656 143.921875 297.285156 C 142.097656 296.8125 140.464844 295.648438 138.511719 295.585938 C 137.285156 295.460938 135.871094 295.839844 134.644531 295.742188 C 133.386719 295.648438 132.191406 295.273438 131.027344 294.863281 C 128.574219 293.605469 126.75 293.917969 124.140625 294.234375 C 122.976562 294.390625 122.0625 293.761719 121.058594 293.257812 C 119.988281 292.628906 118.792969 292.160156 117.851562 291.308594 C 116.558594 290.398438 115.492188 289.234375 114.167969 288.382812 C 112.535156 287.441406 110.394531 287.597656 108.792969 288.480469 C 107.597656 289.171875 107.09375 290.554688 106.339844 291.625 C 105.867188 292.285156 104.984375 292.535156 104.199219 292.597656 C 103.351562 292.726562 102.53125 292.347656 101.683594 292.347656 C 100.835938 292.316406 100.078125 292.789062 99.261719 292.914062 C 98.253906 293.132812 97.25 292.691406 96.210938 292.726562 C 94.699219 292.628906 93.378906 291.625 91.839844 291.65625 C 89.984375 291.59375 88.066406 292.597656 86.273438 291.625 C 85.078125 291.089844 84.132812 290.207031 83.285156 289.265625 C 82.527344 288.542969 81.492188 288.164062 80.832031 287.316406 C 79.699219 286.152344 79.824219 284.167969 78.347656 283.289062 C 77.464844 282.753906 76.332031 282.878906 75.359375 282.847656 C 74.226562 282.785156 73.125 283.039062 71.992188 282.972656 C 70.324219 282.722656 68.816406 281.90625 67.210938 281.464844 C 66.300781 281.148438 65.324219 280.804688 64.382812 280.363281 C 63.121094 279.609375 61.863281 278.664062 60.386719 278.289062 C 58.4375 277.597656 56.296875 278.003906 54.347656 277.28125 C 52.144531 276.558594 50.667969 274.703125 48.9375 273.253906 C 47.929688 272.28125 46.671875 271.621094 45.542969 270.800781 C 45.476562 270.269531 45.605469 269.765625 45.699219 269.261719 C 45.949219 268.191406 46.105469 266.996094 46.609375 265.992188 C 46.769531 265.675781 46.925781 265.359375 47.113281 265.046875 C 47.335938 264.699219 47.492188 264.167969 47.964844 264.070312 C 49.660156 263.695312 50.917969 265.296875 52.554688 265.296875 C 53.71875 265.363281 54.441406 264.324219 54.976562 263.441406 C 55.132812 263.128906 55.324219 262.84375 55.449219 262.53125 C 56.457031 262.058594 55.574219 259.164062 55.132812 258.410156 C 54.410156 256.902344 52.710938 256.175781 51.800781 254.761719 C 51.578125 254.449219 51.453125 254.101562 51.484375 253.722656 C 51.546875 252.78125 51.738281 251.835938 52.019531 250.925781 C 52.710938 248.660156 53.46875 246.050781 55.542969 244.664062 C 57.304688 243.34375 59.410156 242.339844 61.644531 242.371094 C 62.996094 242.402344 64.253906 242.96875 65.609375 242.875 C 67.242188 242.808594 69.066406 242.527344 70.105469 241.082031 C 73.34375 237.335938 72.683594 235.890625 73.566406 231.550781 C 73.691406 230.605469 74.226562 229.820312 74.632812 228.972656 C 75.261719 227.648438 75.925781 226.328125 76.867188 225.195312 C 77.96875 223.53125 79.414062 222.144531 80.421875 220.386719 C 81.207031 219.535156 82.121094 218.75 82.59375 217.648438 C 83.03125 215.886719 84.886719 212.648438 83.566406 211.074219 C 83 210.414062 82.058594 210.730469 81.300781 210.601562 C 79.289062 210.132812 80.546875 208.652344 79.476562 207.582031 C 78.660156 206.984375 77.875 207.960938 77.183594 208.339844 C 76.773438 208.054688 76.332031 207.773438 76.113281 207.300781 C 75.609375 206.324219 75.359375 205.226562 75.359375 204.15625 C 75.296875 202.363281 75.640625 201.953125 76.992188 200.820312 C 77.90625 199.941406 78.566406 198.714844 78.441406 197.425781 C 78.535156 195.253906 78.03125 193.117188 77.402344 191.039062 C 76.960938 189.625 76.679688 188.210938 76.300781 186.761719 C 75.988281 185.285156 76.113281 183.742188 75.890625 182.234375 C 75.734375 180.847656 75.390625 179.496094 74.539062 178.363281 C 73.847656 177.199219 72.496094 176.507812 71.929688 175.25 C 71.867188 174.496094 72.085938 173.519531 72.714844 173.050781 C 73.34375 172.640625 74.101562 172.671875 74.761719 172.359375 C 76.960938 171.320312 76.019531 168.269531 75.296875 166.507812 C 74.730469 164.933594 73.535156 163.738281 72.714844 162.292969 C 72.277344 161.539062 71.929688 160.71875 71.648438 159.902344 C 71.582031 159.335938 71.742188 158.738281 71.867188 158.171875 C 72.023438 157.730469 72.527344 157.511719 72.777344 157.101562 C 73.503906 156.160156 73.09375 154.839844 73.09375 153.738281 C 72.9375 152.039062 73.0625 150.246094 72.242188 148.675781 C 71.804688 147.574219 70.890625 145.875 69.476562 146.0625 C 68.691406 146.15625 68.34375 146.976562 67.871094 147.511719 C 66.898438 146.816406 66.140625 145.75 65.011719 145.246094 C 64.003906 144.742188 63.5 144.492188 63.65625 143.234375 C 63.65625 142.164062 63.6875 141.09375 63.625 140.023438 C 63.5625 137.507812 60.605469 136.941406 60.386719 134.644531 C 60.386719 133.828125 60.324219 133.011719 60.636719 132.257812 C 61.046875 131.0625 61.800781 130.023438 62.085938 128.765625 C 62.273438 127.570312 61.769531 126.21875 62.367188 125.085938 C 62.871094 125.273438 63.121094 125.933594 63.40625 126.375 C 63.71875 127.003906 63.910156 128.167969 64.820312 128.167969 C 66.929688 128.011719 69.035156 125.273438 69.855469 123.449219 C 70.167969 122.664062 70.136719 121.84375 70.167969 121.027344 C 70.167969 120.808594 70.230469 120.585938 70.386719 120.398438 C 71.269531 119.582031 72.179688 118.761719 72.558594 117.597656 C 73.21875 116.402344 73.0625 114.988281 72.777344 113.699219 C 72.308594 111.402344 71.113281 109.359375 69.789062 107.441406 C 69.382812 106.875 68.972656 106.277344 68.660156 105.648438 C 68.34375 104.988281 67.558594 104.328125 67.839844 103.539062 C 69.035156 103.382812 69.789062 104.261719 70.324219 105.207031 C 70.828125 105.804688 71.175781 106.558594 71.710938 107.15625 C 73.1875 108.761719 75.453125 108.761719 77.339844 109.578125 C 78.347656 110.019531 79.320312 110.679688 79.792969 111.71875 C 80.171875 112.316406 80.359375 112.945312 80.265625 113.667969 C 80.265625 114.359375 80.203125 115.050781 80.042969 115.710938 C 79.855469 116.121094 79.699219 116.5625 79.761719 117 C 79.886719 118.890625 82.96875 120.019531 83.722656 117.945312 C 84.195312 116.78125 84.824219 115.710938 84.980469 114.453125 C 85.109375 113.886719 85.296875 113.320312 85.484375 112.753906 C 85.832031 111.71875 85.738281 110.617188 85.675781 109.546875 C 85.546875 107.722656 85.421875 105.617188 84.101562 104.230469 C 83.378906 103.507812 82.308594 103.570312 81.363281 103.539062 C 81.332031 102.941406 81.648438 102.4375 82.183594 102.21875 C 83.441406 101.277344 85.109375 101.179688 86.273438 100.082031 C 88.976562 97.972656 91.117188 95.238281 93.066406 92.4375 C 93.503906 91.808594 93.882812 91.117188 94.292969 90.488281 C 94.859375 89.890625 95.425781 89.261719 95.800781 88.539062 C 96.179688 87.625 96.179688 86.585938 96.554688 85.675781 C 96.746094 85.296875 97.058594 85.015625 97.34375 84.699219 C 97.6875 84.292969 98.003906 83.851562 98.476562 83.597656 C 99.449219 82.84375 100.425781 82.089844 101.433594 81.367188 C 102.0625 80.894531 102.847656 80.863281 103.570312 80.613281 C 104.546875 80.265625 105.613281 80.359375 106.589844 80.109375 C 108.761719 79.699219 109.734375 75.265625 108.824219 73.503906 C 108.414062 72.8125 107.535156 72.527344 107.21875 71.773438 C 107.03125 71.332031 107.1875 70.828125 107.28125 70.390625 C 107.535156 69.164062 107.753906 67.90625 107.628906 66.648438 C 107.566406 65.796875 107.21875 64.949219 107.15625 64.097656 C 107.753906 62.179688 109.484375 60.703125 109.828125 58.65625 C 109.921875 58.09375 109.859375 57.527344 109.890625 56.960938 C 109.957031 56.300781 110.175781 55.671875 110.394531 55.042969 C 110.898438 53.53125 112.15625 52.273438 113.226562 51.078125 C 114.011719 50.261719 114.578125 49.253906 115.394531 48.46875 C 116.089844 47.871094 117 47.554688 117.660156 46.925781 C 119.800781 45.226562 120.902344 42.429688 123.289062 41.042969 C 124.359375 40.636719 125.648438 40.855469 126.78125 41.011719 C 128.007812 41.171875 129.234375 41.421875 130.304688 42.019531 C 131.375 42.710938 131.152344 44.285156 132.097656 45.039062 C 132.882812 45.542969 133.890625 45.070312 134.644531 44.660156 C 135.398438 44.160156 135.683594 43.277344 136.058594 42.523438 C 136.3125 41.988281 136.785156 41.578125 137.160156 41.109375 C 138.042969 39.816406 138.890625 38.371094 139.046875 36.765625 C 139.109375 36.265625 139.078125 35.699219 139.425781 35.320312 C 140.210938 34.628906 141.1875 34.15625 142.128906 33.714844 C 142.445312 33.621094 142.757812 33.90625 143.074219 33.96875 C 144.113281 34.21875 145.214844 34.25 146.25 34.503906 C 149.425781 34.753906 152.667969 34.3125 155.75 33.496094 C 159.082031 32.648438 161.503906 30.097656 163.769531 27.644531 C 166.347656 24.878906 169.117188 22.363281 172.449219 20.507812 C 174.023438 19.71875 175.753906 19.3125 177.355469 18.652344 C 179.464844 17.707031 181.570312 16.480469 182.894531 14.53125 C 183.804688 13.242188 184.875 11.921875 185.15625 10.347656 C 185.1875 9.121094 184.71875 7.800781 186.382812 7.578125 C 187.421875 7.484375 188.554688 7.359375 189.625 7.234375 C 192.109375 7.140625 192.769531 5.125 193.710938 3.207031 C 194.339844 2.484375 195.316406 2.171875 196.195312 1.855469 C 198.398438 0.945312 200.253906 2.800781 202.234375 3.398438 C 203.304688 3.804688 204.5 3.898438 205.507812 4.464844 C 206.449219 5.285156 207.269531 6.320312 207.769531 7.484375 C 207.992188 8.242188 207.929688 9.058594 207.867188 9.84375 C 207.738281 10.347656 207.332031 10.695312 206.984375 11.070312 C 206.292969 11.667969 205.382812 11.890625 204.6875 12.488281 C 204.089844 12.957031 203.714844 13.398438 203.085938 13.871094 C 202.265625 14.4375 201.574219 15.097656 200.695312 15.570312 C 199.121094 16.542969 197.328125 17.046875 195.566406 17.488281 C 194.339844 17.738281 193.082031 17.675781 191.886719 18.085938 C 187.734375 19.847656 185.535156 24.03125 183.144531 27.613281 C 182.136719 29.25 181.101562 31.011719 179.652344 32.300781 C 179.085938 32.585938 178.363281 32.519531 177.765625 32.773438 C 176.289062 33.433594 175.40625 34.941406 174.496094 36.203125 C 172.953125 38.625 171.351562 40.980469 169.933594 43.464844 C 169.460938 44.347656 169.179688 45.324219 168.960938 46.296875 C 168.550781 48.027344 168.140625 49.726562 167.796875 51.457031 C 167.386719 53.78125 166.695312 56.171875 167.167969 58.53125 C 167.386719 59.695312 168.015625 60.609375 168.265625 61.773438 C 168.363281 63.15625 168.078125 64.632812 167.828125 66.050781 C 167.386719 67.777344 166.945312 69.507812 166.160156 71.113281 C 165.121094 73.09375 163.738281 74.855469 161.976562 76.238281 C 160.90625 77.121094 159.964844 78.503906 160.308594 79.949219 C 160.4375 80.453125 160.90625 80.925781 161.441406 80.894531 C 161.695312 80.894531 161.976562 80.769531 162.164062 80.613281 C 162.449219 80.515625 162.699219 80.359375 162.984375 80.296875 C 164.304688 79.792969 165.59375 79.164062 166.976562 78.851562 C 168.171875 78.628906 169.398438 77.96875 170.59375 78.535156 C 171.445312 78.914062 172.355469 79.101562 173.207031 79.417969 C 174.621094 80.484375 175.15625 82.339844 176.226562 83.757812 C 176.949219 84.953125 177.453125 86.242188 178.175781 87.46875 C 179.085938 89.039062 180.1875 90.519531 181.507812 91.808594 C 182.453125 92.65625 183.523438 93.445312 184.339844 94.417969 C 185.441406 95.804688 186.351562 97.4375 186.605469 99.199219 C 186.667969 100.019531 186.445312 100.773438 186.226562 101.527344 C 185.816406 102.847656 185.472656 104.199219 185.21875 105.585938 C 184.8125 109.074219 185.0625 112.789062 187.234375 115.648438 C 188.207031 116.875 189.558594 117.757812 190.851562 118.636719 C 192.421875 119.800781 193.742188 121.246094 195.191406 122.539062 C 196.226562 123.511719 197.265625 124.582031 198.585938 125.148438 C 200.539062 125.839844 202.644531 125.839844 204.6875 125.902344 C 206.074219 125.964844 207.457031 125.808594 208.808594 125.492188 C 210.507812 125.023438 212.015625 124.078125 213.621094 123.386719 C 215.664062 122.757812 217.835938 122.726562 219.910156 122.945312 C 220.980469 123.039062 222.082031 123.449219 223.183594 123.261719 C 224.347656 123.070312 225.132812 122.097656 226.140625 121.5625 C 226.957031 121.152344 227.933594 120.714844 228.875 120.714844 C 231.550781 120.460938 233.9375 122.066406 236.582031 122.097656 C 237.902344 122.222656 239.253906 122.035156 240.605469 122.191406 C 243.3125 123.007812 245.640625 124.832031 247.621094 126.816406 C 249.414062 128.703125 251.363281 130.496094 252.9375 132.570312 C 254.507812 134.613281 256.269531 136.503906 258.410156 137.980469 C 259.855469 139.144531 261.554688 139.960938 263.441406 140.152344 C 267.5 140.875 267.8125 136.40625 273.789062 136.46875 C 274.542969 136.4375 275.332031 136.40625 276.085938 136.4375 C 277.089844 136.597656 278.066406 136.878906 279.074219 136.847656 C 280.332031 136.847656 281.433594 136.1875 282.628906 135.871094 C 284.011719 135.558594 285.113281 134.644531 286.308594 133.953125 C 287.1875 133.449219 288.257812 133.578125 289.230469 133.546875 C 290.648438 133.515625 292.125 133.640625 293.476562 133.136719 C 295.144531 132.476562 296.65625 131.21875 298.511719 131.09375 C 301.214844 130.964844 304.078125 131.847656 306.121094 133.703125 C 306.5625 134.082031 307.066406 134.394531 307.472656 134.835938 C 307.820312 135.273438 308.070312 135.777344 308.324219 136.25 C 308.511719 136.597656 308.605469 136.972656 308.574219 137.351562 C 308.230469 137.980469 307.882812 138.640625 307.570312 139.269531 C 306.84375 140.621094 306.246094 142.132812 305.554688 143.546875 C 305.050781 144.585938 304.832031 145.65625 304.328125 146.722656 C 303.226562 148.800781 300.648438 149.835938 300.019531 152.226562 C 299.484375 154.179688 299.578125 154.777344 300.679688 156.441406 C 300.933594 157.386719 301.027344 158.425781 300.871094 159.398438 C 300.019531 162.324219 298.792969 165.1875 298.605469 168.238281 C 298.511719 169.808594 298.511719 171.382812 298.542969 172.953125 C 298.730469 174.433594 299.265625 175.816406 299.515625 177.265625 C 299.925781 179.152344 301.121094 180.785156 302.535156 182.042969 C 303.164062 182.515625 303.792969 183.019531 304.390625 183.554688 C 305.335938 184.246094 306.027344 185.316406 307.253906 185.597656 C 307.851562 185.820312 308.480469 185.789062 309.078125 186.101562 C 310.746094 187.453125 311.847656 189.4375 311.910156 191.605469 C 312.097656 192.800781 312.097656 193.996094 311.71875 195.160156 C 310.839844 197.203125 310.148438 199.5 308.417969 201.011719 C 306.625 202.300781 304.738281 203.746094 303.953125 205.917969 C 303.605469 207.082031 303.355469 208.652344 304.421875 209.535156 C 305.019531 210.101562 305.871094 210.164062 306.625 210.195312 C 309.234375 210.289062 311.6875 210.414062 313.199219 212.898438 C 313.953125 214.09375 314.582031 215.382812 315.464844 216.484375 C 316.785156 217.929688 318.417969 219.03125 319.550781 220.667969 C 320.339844 221.675781 320.558594 222.933594 320.90625 224.128906 C 321.1875 225.261719 321.628906 226.328125 322.257812 227.304688 C 323.328125 229.191406 324.742188 230.796875 326.03125 232.558594 C 326.628906 233.4375 326.910156 234.476562 327.289062 235.449219 C 327.886719 236.800781 328.328125 238.21875 328.800781 239.632812 C 329.300781 240.734375 329.269531 241.867188 329.238281 242.9375 Z M 329.238281 242.9375 "/></g></svg>