<svg xmlns="http://www.w3.org/2000/svg" xmlns:xlink="http://www.w3.org/1999/xlink" width="240" zoomAndPan="magnify" viewBox="0 0 180 89.999999" height="120" preserveAspectRatio="xMidYMid meet" version="1.2"><defs><clipPath id="49333935b3"><path d="M 70.589844 15.660156 L 109.589844 15.660156 L 109.589844 39.660156 L 70.589844 39.660156 Z M 70.589844 15.660156 "/></clipPath></defs><g id="70083b5610"><g style="fill:#000000;fill-opacity:1;"><g transform="translate(18.220175, 61.051349)"><path style="stroke:none" d="M 11.59375 0.40625 C 9.507812 0.40625 7.578125 0.113281 5.796875 -0.46875 C 4.015625 -1.050781 2.609375 -1.71875 1.578125 -2.46875 L 1.421875 -8.546875 L 1.953125 -8.640625 C 2.515625 -7.097656 3.285156 -5.710938 4.265625 -4.484375 C 5.253906 -3.253906 6.453125 -2.273438 7.859375 -1.546875 C 9.265625 -0.816406 10.859375 -0.453125 12.640625 -0.453125 C 13.585938 -0.453125 14.46875 -0.644531 15.28125 -1.03125 C 16.09375 -1.425781 16.753906 -2 17.265625 -2.75 C 17.773438 -3.507812 18.03125 -4.441406 18.03125 -5.546875 C 18.03125 -6.546875 17.742188 -7.414062 17.171875 -8.15625 C 16.609375 -8.90625 15.890625 -9.554688 15.015625 -10.109375 C 14.140625 -10.660156 13.210938 -11.144531 12.234375 -11.5625 C 11.265625 -11.988281 10.375 -12.363281 9.5625 -12.6875 C 8.1875 -13.28125 6.914062 -13.875 5.75 -14.46875 C 4.59375 -15.0625 3.660156 -15.820312 2.953125 -16.75 C 2.253906 -17.6875 1.90625 -18.941406 1.90625 -20.515625 C 1.90625 -23.023438 2.84375 -25.007812 4.71875 -26.46875 C 6.59375 -27.925781 9.128906 -28.65625 12.328125 -28.65625 C 13.835938 -28.65625 15.242188 -28.503906 16.546875 -28.203125 C 17.859375 -27.910156 19.046875 -27.492188 20.109375 -26.953125 L 20.265625 -21.6875 L 19.8125 -21.515625 C 18.976562 -23.597656 17.753906 -25.191406 16.140625 -26.296875 C 14.535156 -27.410156 12.75 -27.96875 10.78125 -27.96875 C 9.15625 -27.96875 7.78125 -27.515625 6.65625 -26.609375 C 5.539062 -25.703125 4.984375 -24.453125 4.984375 -22.859375 C 4.984375 -21.960938 5.207031 -21.179688 5.65625 -20.515625 C 6.101562 -19.859375 6.695312 -19.285156 7.4375 -18.796875 C 8.175781 -18.316406 8.972656 -17.894531 9.828125 -17.53125 C 10.679688 -17.164062 11.515625 -16.820312 12.328125 -16.5 C 13.347656 -16.09375 14.390625 -15.660156 15.453125 -15.203125 C 16.523438 -14.742188 17.503906 -14.203125 18.390625 -13.578125 C 19.285156 -12.953125 20.003906 -12.207031 20.546875 -11.34375 C 21.085938 -10.476562 21.359375 -9.441406 21.359375 -8.234375 C 21.359375 -6.847656 21.070312 -5.613281 20.5 -4.53125 C 19.9375 -3.457031 19.179688 -2.554688 18.234375 -1.828125 C 17.296875 -1.097656 16.242188 -0.539062 15.078125 -0.15625 C 13.910156 0.21875 12.75 0.40625 11.59375 0.40625 Z M 11.59375 0.40625 "/></g></g><g style="fill:#000000;fill-opacity:1;"><g transform="translate(51.215894, 61.051349)"><path style="stroke:none" d="M 0.8125 0 L 0.8125 -0.5625 C 1.488281 -0.78125 1.925781 -1.234375 2.125 -1.921875 C 2.332031 -2.609375 2.4375 -3.679688 2.4375 -5.140625 L 2.4375 -26.625 C 2.4375 -27.8125 2.289062 -28.59375 2 -28.96875 C 1.71875 -29.351562 1.320312 -29.65625 0.8125 -29.875 L 0.8125 -30.4375 L 6.15625 -32.796875 L 6.5625 -32.46875 L 6.5625 -16.90625 C 7.675781 -17.820312 8.945312 -18.65625 10.375 -19.40625 C 11.8125 -20.164062 13.3125 -20.546875 14.875 -20.546875 C 16.738281 -20.546875 18.242188 -20.023438 19.390625 -18.984375 C 20.535156 -17.941406 21.109375 -16.234375 21.109375 -13.859375 L 21.109375 -5.140625 C 21.109375 -3.679688 21.207031 -2.609375 21.40625 -1.921875 C 21.613281 -1.234375 22.054688 -0.78125 22.734375 -0.5625 L 22.734375 0 L 15.359375 0 L 15.359375 -0.5625 C 16.035156 -0.78125 16.472656 -1.234375 16.671875 -1.921875 C 16.878906 -2.609375 16.984375 -3.679688 16.984375 -5.140625 L 16.984375 -13.125 C 16.984375 -14.96875 16.597656 -16.394531 15.828125 -17.40625 C 15.054688 -18.414062 13.914062 -18.921875 12.40625 -18.921875 C 11.457031 -18.921875 10.523438 -18.691406 9.609375 -18.234375 C 8.691406 -17.773438 7.675781 -17.101562 6.5625 -16.21875 L 6.5625 -5.140625 C 6.5625 -3.679688 6.660156 -2.609375 6.859375 -1.921875 C 7.066406 -1.234375 7.507812 -0.78125 8.1875 -0.5625 L 8.1875 0 Z M 0.8125 0 "/></g></g><g style="fill:#000000;fill-opacity:1;"><g transform="translate(85.346495, 61.051349)"><path style="stroke:none" d="M 1.140625 0 L 1.140625 -0.5625 C 1.804688 -0.78125 2.238281 -1.234375 2.4375 -1.921875 C 2.644531 -2.609375 2.75 -3.679688 2.75 -5.140625 L 2.75 -14.46875 C 2.75 -15.65625 2.609375 -16.4375 2.328125 -16.8125 C 2.046875 -17.195312 1.648438 -17.5 1.140625 -17.71875 L 1.140625 -18.28125 L 6.484375 -20.625 L 6.890625 -20.3125 L 6.890625 -5.140625 C 6.890625 -3.679688 6.988281 -2.609375 7.1875 -1.921875 C 7.394531 -1.234375 7.835938 -0.78125 8.515625 -0.5625 L 8.515625 0 Z M 1.828125 -24.765625 C 1.828125 -25.546875 2.09375 -26.207031 2.625 -26.75 C 3.164062 -27.289062 3.816406 -27.5625 4.578125 -27.5625 C 5.390625 -27.5625 6.050781 -27.289062 6.5625 -26.75 C 7.082031 -26.207031 7.34375 -25.546875 7.34375 -24.765625 C 7.34375 -24.003906 7.078125 -23.351562 6.546875 -22.8125 C 6.015625 -22.28125 5.359375 -22.015625 4.578125 -22.015625 C 3.816406 -22.015625 3.164062 -22.28125 2.625 -22.8125 C 2.09375 -23.351562 1.828125 -24.003906 1.828125 -24.765625 Z M 1.828125 -24.765625 "/></g></g><g style="fill:#000000;fill-opacity:1;"><g transform="translate(105.655788, 61.051349)"><path style="stroke:none" d="M 1.140625 0 L 1.140625 -0.5625 C 1.804688 -0.78125 2.238281 -1.234375 2.4375 -1.921875 C 2.644531 -2.609375 2.75 -3.679688 2.75 -5.140625 L 2.75 -14.46875 C 2.75 -15.65625 2.609375 -16.4375 2.328125 -16.8125 C 2.046875 -17.195312 1.648438 -17.5 1.140625 -17.71875 L 1.140625 -18.28125 L 6.484375 -20.625 L 6.890625 -20.3125 L 6.890625 -16.90625 C 7.992188 -17.820312 9.257812 -18.65625 10.6875 -19.40625 C 12.125 -20.164062 13.628906 -20.546875 15.203125 -20.546875 C 17.066406 -20.546875 18.570312 -20.023438 19.71875 -18.984375 C 20.863281 -17.941406 21.4375 -16.234375 21.4375 -13.859375 L 21.4375 -5.140625 C 21.4375 -3.679688 21.535156 -2.609375 21.734375 -1.921875 C 21.941406 -1.234375 22.382812 -0.78125 23.0625 -0.5625 L 23.0625 0 L 15.6875 0 L 15.6875 -0.5625 C 16.363281 -0.78125 16.800781 -1.234375 17 -1.921875 C 17.207031 -2.609375 17.3125 -3.679688 17.3125 -5.140625 L 17.3125 -13.125 C 17.3125 -14.96875 16.925781 -16.394531 16.15625 -17.40625 C 15.382812 -18.414062 14.242188 -18.921875 12.734375 -18.921875 C 11.785156 -18.921875 10.847656 -18.691406 9.921875 -18.234375 C 9.003906 -17.773438 7.992188 -17.101562 6.890625 -16.21875 L 6.890625 -5.140625 C 6.890625 -3.679688 6.988281 -2.609375 7.1875 -1.921875 C 7.394531 -1.234375 7.835938 -0.78125 8.515625 -0.5625 L 8.515625 0 Z M 1.140625 0 "/></g></g><g style="fill:#000000;fill-opacity:1;"><g transform="translate(140.110648, 61.051349)"><path style="stroke:none" d="M 10.859375 0.40625 C 9.722656 0.40625 8.59375 0.203125 7.46875 -0.203125 C 6.351562 -0.609375 5.320312 -1.21875 4.375 -2.03125 C 3.425781 -2.84375 2.664062 -3.851562 2.09375 -5.0625 C 1.53125 -6.28125 1.25 -7.710938 1.25 -9.359375 C 1.25 -11.085938 1.550781 -12.640625 2.15625 -14.015625 C 2.769531 -15.398438 3.585938 -16.578125 4.609375 -17.546875 C 5.640625 -18.523438 6.785156 -19.269531 8.046875 -19.78125 C 9.304688 -20.289062 10.597656 -20.546875 11.921875 -20.546875 C 13.753906 -20.546875 15.289062 -20.179688 16.53125 -19.453125 C 17.78125 -18.722656 18.722656 -17.800781 19.359375 -16.6875 C 19.992188 -15.582031 20.3125 -14.4375 20.3125 -13.25 L 4.9375 -13.25 C 4.914062 -13.03125 4.894531 -12.8125 4.875 -12.59375 C 4.863281 -12.382812 4.859375 -12.171875 4.859375 -11.953125 C 4.859375 -10.203125 5.203125 -8.632812 5.890625 -7.25 C 6.585938 -5.875 7.5625 -4.800781 8.8125 -4.03125 C 10.070312 -3.257812 11.550781 -2.875 13.25 -2.875 C 14.757812 -2.875 16.097656 -3.171875 17.265625 -3.765625 C 18.429688 -4.359375 19.429688 -5.128906 20.265625 -6.078125 L 20.625 -5.671875 C 20.007812 -4.722656 19.238281 -3.78125 18.3125 -2.84375 C 17.394531 -1.914062 16.316406 -1.140625 15.078125 -0.515625 C 13.835938 0.0976562 12.429688 0.40625 10.859375 0.40625 Z M 4.984375 -13.828125 L 16.21875 -13.828125 C 16.050781 -14.929688 15.703125 -15.9375 15.171875 -16.84375 C 14.648438 -17.75 14.003906 -18.46875 13.234375 -19 C 12.460938 -19.539062 11.601562 -19.8125 10.65625 -19.8125 C 9.519531 -19.84375 8.5625 -19.570312 7.78125 -19 C 7 -18.4375 6.378906 -17.695312 5.921875 -16.78125 C 5.460938 -15.863281 5.148438 -14.878906 4.984375 -13.828125 Z M 4.984375 -13.828125 "/></g></g><g clip-rule="nonzero" clip-path="url(#49333935b3)"><path style=" stroke:none;fill-rule:nonzero;fill:#000000;fill-opacity:1;" d="M 109.398438 35.066406 C 91.453125 35.871094 90.800781 36.523438 89.992188 54.46875 C 89.1875 36.523438 88.53125 35.871094 70.589844 35.066406 C 88.53125 34.257812 89.1875 33.605469 89.992188 15.660156 C 90.800781 33.605469 91.453125 34.257812 109.398438 35.066406 Z M 109.398438 35.066406 "/></g><path style=" stroke:none;fill-rule:nonzero;fill:#000000;fill-opacity:1;" d="M 85.613281 24.816406 C 81.605469 24.996094 81.457031 25.140625 81.277344 29.148438 C 81.097656 25.140625 80.953125 24.996094 76.945312 24.816406 C 80.953125 24.636719 81.097656 24.488281 81.277344 20.484375 C 81.457031 24.488281 81.605469 24.636719 85.613281 24.816406 Z M 85.613281 24.816406 "/><path style=" stroke:none;fill-rule:nonzero;fill:#000000;fill-opacity:1;" d="M 107.371094 24.449219 C 101.484375 24.714844 101.273438 24.929688 101.007812 30.8125 C 100.742188 24.929688 100.527344 24.714844 94.644531 24.449219 C 100.527344 24.183594 100.742188 23.96875 101.007812 18.085938 C 101.273438 23.96875 101.484375 24.183594 107.371094 24.449219 Z M 107.371094 24.449219 "/><path style=" stroke:none;fill-rule:nonzero;fill:#000000;fill-opacity:1;" d="M 107.371094 20.117188 C 105.769531 20.1875 105.710938 20.246094 105.636719 21.847656 C 105.566406 20.246094 105.507812 20.1875 103.902344 20.117188 C 105.507812 20.042969 105.566406 19.984375 105.636719 18.382812 C 105.710938 19.984375 105.769531 20.042969 107.371094 20.117188 Z M 107.371094 20.117188 "/><path style=" stroke:none;fill-rule:nonzero;fill:#000000;fill-opacity:1;" d="M 97.375 18.085938 C 95.769531 18.15625 95.710938 18.214844 95.640625 19.820312 C 95.566406 18.214844 95.511719 18.15625 93.90625 18.085938 C 95.511719 18.011719 95.566406 17.953125 95.640625 16.351562 C 95.710938 17.953125 95.769531 18.011719 97.375 18.085938 Z M 97.375 18.085938 "/></g></svg>