<svg xmlns="http://www.w3.org/2000/svg" xmlns:xlink="http://www.w3.org/1999/xlink" width="1080" zoomAndPan="magnify" viewBox="0 0 810 1012.49997" height="1350" preserveAspectRatio="xMidYMid meet" version="1.2"><defs><clipPath id="dfe7b04ce0"><path d="M 70 100 L 709 100 L 709 940 L 70 940 Z M 70 100 "/></clipPath><clipPath id="f55d498476"><path d="M 110.015625 76.980469 L 744.992188 120.046875 L 688.738281 949.480469 L 53.761719 906.414062 Z M 110.015625 76.980469 "/></clipPath><clipPath id="744a037160"><path d="M 110.015625 76.980469 L 744.992188 120.046875 L 688.738281 949.480469 L 53.761719 906.414062 Z M 110.015625 76.980469 "/></clipPath><clipPath id="45cd3e8672"><path d="M 110.015625 76.980469 L 744.992188 120.046875 L 688.738281 949.480469 L 53.761719 906.414062 Z M 110.015625 76.980469 "/></clipPath></defs><g id="bbc9aded09"><g clip-rule="nonzero" clip-path="url(#dfe7b04ce0)"><g clip-rule="nonzero" clip-path="url(#f55d498476)"><g clip-rule="nonzero" clip-path="url(#744a037160)"><g clip-rule="nonzero" clip-path="url(#45cd3e8672)"><path style=" stroke:none;fill-rule:nonzero;fill:#000000;fill-opacity:1;" d="M 708.324219 652.4375 C 708.121094 650.257812 707.359375 648.105469 706.945312 645.980469 C 705.699219 641.703125 704.53125 637.289062 702.851562 633.191406 C 701.558594 630.585938 699.796875 628.789062 698.359375 626.246094 C 696.511719 623.601562 695.03125 620.707031 693.691406 617.816406 C 692.628906 614.949219 692.421875 611.789062 691.574219 608.867188 C 689.71875 603.21875 685.015625 599.402344 681.253906 595.09375 C 677.269531 588.949219 676.191406 582.167969 668.253906 579.671875 C 664.773438 578.457031 661.253906 578.847656 657.691406 577.765625 C 656.878906 577.359375 656.871094 576.453125 656.992188 575.691406 C 657.144531 574.511719 657.433594 573.34375 658.058594 572.335938 C 659.082031 570.660156 660.441406 569.144531 661.925781 567.914062 C 663.914062 566.371094 666.296875 565.277344 668.230469 563.519531 C 670.308594 561.773438 671.585938 559.414062 672.929688 557.128906 C 674.601562 554.09375 676.417969 551.003906 677.207031 547.628906 C 677.859375 545.226562 677.605469 542.761719 677.5 540.238281 C 677.484375 536.324219 676.132812 532.527344 673.761719 529.359375 C 672.476562 527.734375 671.277344 525.835938 669.226562 525.136719 C 667.796875 524.621094 666.269531 524.449219 664.996094 523.660156 C 663.335938 522.359375 662.058594 520.597656 660.402344 519.226562 C 658.046875 516.898438 655.460938 514.835938 653.914062 511.863281 C 652.476562 509.390625 652.25 506.507812 651.808594 503.753906 C 651.296875 500.992188 650.578125 498.214844 650.980469 495.375 C 651.253906 491.339844 651.53125 487.234375 652.636719 483.324219 C 653.941406 478.519531 656.195312 474.128906 657.84375 469.417969 C 658.59375 466.601562 658.597656 463.457031 657.878906 460.609375 C 657.410156 459.320312 656.5 458.28125 656.242188 456.933594 C 656.5625 454.300781 657.433594 451.769531 659.578125 450.03125 C 661.753906 447.800781 664.648438 446.320312 666.4375 443.644531 C 667.75 441.84375 668.453125 439.726562 669.359375 437.691406 C 670.507812 435.179688 672.15625 432.496094 673.445312 429.996094 C 674.632812 427.910156 675.824219 425.824219 677.152344 423.746094 C 677.925781 422.679688 678.628906 421.539062 678.515625 420.132812 C 678.550781 418.597656 678.019531 417.164062 677.414062 415.796875 C 676.582031 413.640625 675.167969 411.796875 673.375 410.417969 C 670.4375 407.351562 666.964844 404.949219 662.933594 403.628906 C 658.570312 402.003906 653.605469 401.039062 649.105469 402.480469 C 645.96875 403.386719 643.402344 405.167969 640.136719 405.925781 C 636.753906 406.328125 633.375 405.675781 629.957031 405.585938 C 626.207031 405.191406 623.117188 407.5 619.933594 409.101562 C 618.421875 409.765625 616.867188 410.011719 615.304688 410.394531 C 613.949219 410.792969 612.65625 411.261719 611.246094 411.449219 C 608.214844 411.871094 605.464844 410.148438 602.464844 410.082031 C 599.195312 409.859375 595.917969 409.777344 592.683594 410.046875 C 589.574219 410.535156 586.566406 411.660156 583.996094 413.445312 C 579.910156 416.03125 578.597656 417.832031 573.480469 416.015625 C 571.554688 415.535156 569.804688 414.578125 568.28125 413.355469 C 565.496094 411.140625 562.789062 408.789062 560.453125 406.113281 C 558.582031 403.820312 556.929688 401.402344 555.207031 398.976562 C 551.980469 394.003906 547.730469 389.730469 543.988281 385.144531 C 540.949219 381.511719 537.238281 378.535156 533.292969 375.890625 C 531.082031 374.480469 528.652344 373.199219 525.945312 372.945312 C 524.695312 372.859375 523.441406 372.773438 522.1875 372.691406 C 519.894531 372.535156 517.601562 372.308594 515.40625 371.738281 C 511.988281 370.601562 508.664062 369.117188 505.148438 368.386719 C 500.53125 367.445312 495.640625 368.441406 491.628906 370.964844 C 490.382812 371.789062 489.125 372.824219 487.511719 372.925781 C 484.320312 372.566406 481.320312 371.457031 478.121094 371.238281 C 459.460938 369.203125 462.527344 379.617188 439.710938 374.996094 C 438.402344 374.695312 437.015625 374.53125 435.792969 374.03125 C 433.621094 373.042969 431.851562 371.316406 430.296875 369.535156 C 427.488281 366.617188 424.90625 363.503906 422.019531 360.722656 C 419.675781 358.1875 416.777344 356.59375 414.363281 354.050781 C 413.378906 353.144531 412.625 351.90625 412.078125 350.679688 C 410.8125 348.707031 410.191406 346.566406 409.859375 344.238281 C 409.292969 339.167969 409.648438 333.949219 411.234375 329.089844 C 412.457031 324.492188 415.335938 320.140625 414.203125 315.242188 C 413.359375 311.199219 411.59375 307.304688 409.019531 304.054688 C 406.191406 300.4375 402.386719 297.800781 400.078125 293.730469 C 397.589844 290.207031 396.046875 286.1875 394.421875 282.300781 C 393.335938 279.78125 391.816406 277.441406 390.660156 274.914062 C 389.734375 273.105469 388.746094 271.21875 387.238281 269.71875 C 385.992188 268.515625 384.207031 268.046875 382.640625 267.449219 C 380.941406 266.773438 379.464844 265.835938 377.605469 265.429688 C 375.816406 265.03125 373.964844 265.53125 372.195312 265.902344 C 368.882812 266.308594 365.734375 267.351562 362.585938 268.464844 C 361.367188 268.941406 360.148438 269.351562 358.996094 269.902344 C 359.382812 267.269531 362.332031 266.003906 364.128906 264.238281 C 366.636719 262.308594 368.820312 260.011719 370.667969 257.480469 C 374.179688 253.105469 376.015625 247.707031 377.699219 242.4375 C 378.550781 239.136719 379.34375 235.695312 379.503906 232.28125 C 379.382812 229.96875 378.40625 227.875 377.789062 225.664062 C 376.886719 222.457031 377.550781 218.867188 378.398438 215.640625 C 379.269531 212.0625 380.210938 208.492188 381.292969 204.929688 C 382.585938 201.3125 383.265625 197.441406 385.101562 194.070312 C 388.695312 188.511719 392.824219 183.269531 396.753906 177.875 C 403.726562 168.839844 402.855469 174.441406 408.355469 170.621094 C 411.992188 167.511719 414.78125 163.507812 417.492188 159.566406 C 419.570312 156.769531 421.785156 153.984375 423.929688 151.195312 C 427.277344 147.15625 431.398438 143.101562 436.585938 141.847656 C 438.554688 141.628906 440.578125 141.699219 442.550781 141.480469 C 446.714844 140.855469 450.96875 139.957031 454.792969 138.1875 C 459.1875 136.25 462.816406 133.207031 466.777344 130.472656 C 470.855469 129.070312 475.113281 126.074219 475.011719 121.382812 C 475.832031 116.476562 472.925781 111.941406 469.667969 108.4375 C 467.304688 106.179688 463.90625 105.808594 461.0625 104.496094 C 459.289062 103.816406 457.75 102.804688 456.214844 101.792969 C 454.308594 101.03125 452.113281 100.394531 449.902344 100.035156 C 446.207031 99.925781 442.414062 101.207031 439.414062 103.238281 C 437.800781 104.316406 437.253906 106.238281 436.234375 107.847656 C 435.535156 108.917969 434.898438 110.0625 433.867188 110.832031 C 431.152344 111.695312 428.308594 111.363281 425.503906 111.523438 C 422.164062 111.296875 418.429688 112.792969 417.832031 116.457031 C 417.378906 117.964844 417.964844 119.609375 417.375 121.109375 C 415.53125 124.617188 412.933594 127.867188 409.957031 130.53125 C 406.796875 132.835938 403.121094 134.472656 399.339844 135.613281 C 396.140625 136.445312 392.804688 137.199219 389.703125 138.597656 C 384.226562 141.023438 379.371094 144.605469 374.65625 148.203125 C 371.027344 151.242188 367.722656 154.582031 364.09375 157.621094 C 358.261719 163.238281 351.578125 164.953125 343.722656 165.328125 C 339.09375 165.574219 334.316406 165.949219 329.804688 164.457031 C 328.371094 164.007812 326.691406 164.035156 325.332031 163.453125 C 323.984375 162.730469 322.40625 162.277344 320.964844 162.945312 C 318.007812 164.285156 314.375 165.296875 312.640625 168.183594 C 311.917969 169.605469 311.808594 171.203125 311.492188 172.789062 C 310.414062 176.28125 308.050781 179.199219 305.5 181.753906 C 303.914062 183.53125 303.558594 186.722656 300.6875 186.808594 C 299.371094 180.429688 296.402344 178.898438 290.582031 177.105469 C 286.300781 176.324219 281.457031 174.597656 277.324219 176.835938 C 272.613281 179.3125 269.835938 184.15625 265.832031 187.589844 C 263.871094 189.695312 261.027344 190.410156 258.742188 192.144531 C 256.894531 193.625 255.570312 195.632812 253.855469 197.265625 C 252.585938 198.4375 251.386719 199.613281 250.1875 200.859375 C 246.300781 204.582031 243.984375 209.878906 243.828125 215.25 C 243.207031 218.214844 240.886719 220.503906 239.25 222.980469 C 235.566406 227.832031 237.300781 229.070312 237.578125 234.261719 C 237.578125 236.289062 237.167969 238.21875 236.691406 240.144531 C 236.140625 242.0625 235.441406 244.113281 236.144531 246.117188 C 236.605469 247.546875 237.574219 248.730469 238.621094 249.78125 C 239.488281 250.398438 239.867188 250.984375 239.792969 252.097656 C 239.816406 254.828125 238.785156 257.691406 236.96875 259.738281 C 235.097656 260.519531 232.964844 260.023438 230.980469 260.449219 C 228.710938 260.925781 226.328125 261.042969 224.230469 262.089844 C 221.472656 263.578125 219.039062 265.441406 216.410156 267.152344 C 215.25 267.769531 214.277344 268.683594 213.441406 269.675781 C 212.402344 270.585938 211.355469 271.5625 210.710938 272.847656 C 209.59375 274.867188 209.570312 277.3125 208.453125 279.335938 C 207.597656 280.605469 206.421875 281.503906 205.367188 282.621094 C 203.898438 284.6875 202.429688 286.757812 200.832031 288.675781 C 197.257812 292.976562 193.351562 296.976562 189.054688 300.53125 C 187.8125 301.355469 186.628906 302.324219 185.257812 302.929688 C 183.101562 303.832031 180.707031 304.089844 178.734375 305.351562 C 177.644531 305.976562 176.285156 306.445312 175.515625 307.511719 C 174.5 309.050781 173.949219 311.039062 174.101562 312.867188 C 174.628906 315.421875 177.65625 315.066406 179.664062 315.34375 C 182.574219 315.75 182.507812 320.847656 182.773438 323.105469 C 182.765625 325.269531 182.757812 327.4375 182.613281 329.59375 C 182.375 331.046875 181.660156 332.328125 181.222656 333.625 C 180.703125 335.058594 180.464844 336.511719 179.886719 337.867188 C 179.082031 339.421875 178.203125 341.039062 177.398438 342.59375 C 176.628906 342.609375 175.839844 341.859375 175.605469 341.214844 C 175.519531 340.4375 176.1875 339.855469 176.304688 339.164062 C 176.75 337.726562 176.992188 336.203125 177.167969 334.679688 C 177.527344 332.464844 177.394531 330.289062 176.269531 328.324219 C 175.566406 326.320312 174.144531 324.617188 172.558594 323.25 C 169.253906 320.507812 164.976562 319.660156 161.101562 318.070312 C 159.964844 317.292969 158.691406 316.507812 158.074219 315.277344 C 157.085938 313.390625 155.878906 311.632812 154.816406 309.742188 C 153.035156 307.175781 149.382812 305.390625 146.300781 306.507812 C 144.566406 307.371094 143.929688 309.5625 144.222656 311.402344 C 144.886719 313.964844 146.40625 316.304688 147.640625 318.695312 C 151.167969 324.386719 154.578125 330.769531 154.042969 337.652344 C 153.738281 339.03125 152.894531 340.164062 152.320312 341.382812 C 151.261719 342.570312 150 343.671875 148.746094 344.636719 C 146.742188 346.386719 147.109375 349.207031 146.601562 351.550781 C 146.234375 352.855469 145.460938 353.921875 144.621094 354.980469 C 142.945312 357.035156 141 358.929688 138.546875 360.023438 C 137.621094 357.234375 136.335938 353.511719 133.015625 353.007812 C 132.121094 352.804688 131.203125 352.953125 130.53125 353.535156 C 127.992188 355.949219 128.230469 359.671875 128.152344 362.882812 C 127.921875 365.246094 126.179688 367.222656 125.195312 369.394531 C 124.152344 371.351562 123.585938 373.546875 123.507812 375.710938 C 123.121094 378.339844 123.839844 381.117188 125.511719 383.257812 C 126.933594 384.960938 128.597656 386.191406 129.578125 388.21875 C 130.230469 390.988281 129.542969 393.878906 129.417969 396.734375 C 129.070312 398.808594 129.34375 400.925781 130.921875 402.429688 C 132.628906 404.011719 134.875 404.933594 136.433594 406.648438 C 139.726562 410.648438 142.117188 412.488281 145.738281 407.558594 C 148.210938 410.242188 148.785156 414.128906 148.683594 417.6875 C 148.703125 420.484375 148.789062 423.355469 148.601562 426.140625 C 148.242188 427.304688 146.671875 427.757812 146.105469 428.90625 C 145.238281 430.386719 144.90625 432.179688 144.585938 433.835938 C 144.332031 436.546875 145.765625 439.089844 146.722656 441.460938 C 148.621094 445.4375 151.527344 448.917969 152.488281 453.316406 C 152.929688 455.027344 152.953125 456.773438 152.839844 458.445312 C 152.695312 459.554688 151.347656 459.8125 150.433594 459.890625 C 145.65625 460.265625 142.960938 463.925781 142.785156 468.597656 C 142.984375 471.828125 145.707031 473.96875 147.570312 476.335938 C 148.984375 478.179688 150.09375 480.351562 150.355469 482.675781 C 151.089844 487.339844 150.0625 492.164062 151.007812 496.769531 C 151.855469 502.839844 153.761719 508.703125 154.046875 514.804688 C 153.914062 517.800781 154.335938 520.835938 151.8125 523.042969 C 150.175781 524.46875 148.140625 525.660156 147.09375 527.683594 C 145.734375 531.226562 145.746094 535.214844 146.542969 538.902344 C 147.046875 540.753906 147.679688 542.753906 149.121094 544.179688 C 149.914062 544.863281 150.699219 545.617188 151.640625 546.167969 C 153 546.75 154.441406 546.082031 155.613281 545.320312 C 155.425781 550.132812 159.683594 552.238281 163.882812 552.171875 C 164.097656 554.144531 163.140625 555.898438 162.324219 557.660156 C 161.574219 559.425781 160.964844 561.203125 160.148438 562.894531 C 159.128906 564.574219 157.511719 565.722656 156.160156 567.097656 C 154.820312 568.335938 154.007812 570.03125 152.734375 571.269531 C 148.363281 575.9375 143.992188 580.605469 141.082031 586.421875 C 139.140625 589.292969 137.808594 592.488281 137.222656 595.945312 C 136.285156 600.496094 135.738281 605.492188 132.285156 608.964844 C 130.53125 611.152344 128.671875 613.820312 125.523438 613.886719 C 122.484375 614.382812 119.527344 613.691406 116.652344 612.796875 C 114.316406 612.21875 111.882812 612.054688 109.484375 612.378906 C 105.539062 612.8125 101.730469 614.371094 98.371094 616.519531 C 96.34375 617.570312 94.5625 619.058594 93.183594 620.851562 C 91.28125 623.171875 89.910156 625.875 88.8125 628.664062 C 87.300781 632.40625 85.714844 636.214844 85.644531 640.335938 C 86.125 644.5625 90 647.203125 92.589844 650.246094 C 93.480469 651.492188 93.875 652.917969 94.128906 654.332031 C 93.640625 655.347656 93.765625 656.617188 93.550781 657.71875 C 93.441406 658.273438 92.996094 658.660156 92.753906 659.132812 C 90.308594 663.234375 88.972656 661.324219 85.605469 659.417969 C 82.5625 657.953125 78.070312 657.230469 75.894531 660.4375 C 73.511719 663.632812 71.863281 667.292969 70.972656 671.148438 C 70.40625 673.347656 69.386719 676.003906 70.570312 678.113281 C 72 679.746094 74.019531 680.863281 75.667969 682.304688 C 78.773438 684.960938 81.359375 688.070312 84.378906 690.933594 C 87.457031 693.9375 91.464844 695.679688 95.601562 696.519531 C 98.640625 697.003906 101.777344 697.148438 104.617188 698.527344 C 108.363281 699.972656 111.007812 703.226562 114.753906 704.667969 C 116.71875 705.570312 118.753906 706.476562 120.800781 707.246094 C 123.710938 708.632812 126.679688 710.160156 129.863281 710.65625 C 132.570312 710.910156 135.246094 710.601562 137.882812 710.921875 C 139.269531 711.085938 140.886719 710.914062 142.160156 711.699219 C 143.410156 712.835938 143.429688 714.652344 144.023438 716.160156 C 144.4375 717.308594 144.988281 718.464844 145.6875 719.488281 C 147.074219 721.679688 149.136719 723.21875 151.199219 724.757812 C 152.765625 726.402344 154.027344 728.375 155.902344 729.621094 C 159.269531 732.503906 163.386719 733.625 167.757812 733.082031 C 169.582031 732.925781 171.359375 732.488281 173.148438 732.886719 C 175.089844 733.160156 176.671875 734.523438 178.601562 734.933594 C 181.328125 735.960938 184.320312 736.160156 187.144531 736.773438 C 189.703125 737.15625 192.042969 735.636719 194.542969 735.875 C 198.378906 736.976562 202.617188 737.332031 206.0625 734.980469 C 209.007812 732.804688 209.894531 727.96875 213.917969 727.332031 C 218.117188 726.21875 221.199219 728.175781 223.785156 731.289062 C 226.679688 733.933594 229.488281 736.847656 232.992188 738.765625 C 242.539062 745.355469 241.886719 742.582031 252.113281 743.277344 C 253.429688 743.4375 255.0625 744.105469 256.269531 744.816406 C 257.757812 745.546875 259.257812 746.136719 260.753906 746.730469 C 262.9375 747.507812 265.199219 748.148438 267.566406 748.308594 C 270.066406 748.550781 272.546875 748.019531 275.035156 748.398438 C 278.984375 748.945312 282.222656 751.679688 285.988281 752.84375 C 289.191406 754.039062 293.535156 751.820312 296.070312 754.578125 C 297.675781 756.714844 298.390625 759.558594 300.578125 761.316406 C 302.175781 762.472656 304.253906 762.753906 306.019531 763.5 C 309.890625 765.160156 313.382812 768.265625 314.570312 772.402344 C 315.148438 774.1875 314.945312 776.132812 315.242188 777.96875 C 315.734375 781.007812 317.003906 783.890625 318.574219 786.515625 C 319.894531 788.699219 322.175781 790.113281 324.25 791.441406 C 326.675781 792.796875 329.277344 793.601562 331.96875 794.0625 C 334.5 794.863281 337.335938 795.335938 339.773438 796.480469 C 341.988281 797.820312 343.515625 800.019531 345.964844 801.023438 C 348.835938 801.917969 351.875 802.476562 354.109375 804.582031 C 355.933594 806.523438 356.445312 809.285156 358.050781 811.351562 C 359.179688 813.246094 361.34375 814.300781 362.625 816.066406 C 363.21875 817.574219 362.757812 819.222656 363.210938 820.789062 C 363.832031 823 364.5 825.492188 366.054688 827.277344 C 367.808594 829.28125 370.449219 830.507812 373.097656 830.621094 C 374.632812 830.652344 376.175781 830.546875 377.535156 831.128906 C 379.089844 831.933594 380.316406 833.417969 380.832031 835.058594 C 381.882812 840.164062 379.445312 845.242188 380.140625 850.390625 C 380.804688 854.003906 383.523438 857.191406 387.082031 858.34375 C 392.878906 859.433594 398.804688 858.578125 404.625 858.273438 C 408.289062 857.824219 411.972656 857.09375 415.722656 857.488281 C 421.789062 858.667969 424.765625 862.226562 431.488281 859.957031 C 435.796875 859.269531 438.023438 855.296875 441.0625 852.707031 C 442.753906 851.492188 444.882812 851.007812 446.636719 849.867188 C 448.324219 848.722656 450.015625 847.441406 451.765625 846.371094 C 455.324219 844.375 459.429688 846.75 462.671875 848.371094 C 464.433594 849.1875 466.144531 849.722656 467.902344 850.613281 C 470.242188 852.167969 473.125 852.921875 475.910156 853.113281 C 479.609375 853.152344 483.347656 852.636719 486.921875 851.480469 C 489.4375 850.464844 491.390625 848.429688 493.394531 846.679688 C 494.765625 845.023438 496.804688 843.832031 498.988281 844.609375 C 502.121094 845.800781 505.617188 846.808594 508.109375 849.214844 C 509.859375 851.21875 511.542969 853.222656 513.976562 854.4375 C 516.832031 855.609375 520.105469 854.710938 523.046875 855.679688 C 524.09375 856.730469 524.925781 857.835938 525.972656 858.886719 C 528.582031 861.648438 532.328125 863.089844 535.984375 863.757812 C 537.648438 863.941406 539.550781 863.71875 541.113281 864.386719 C 540.839844 865.347656 540.628906 866.378906 539.945312 867.171875 C 537.542969 872.742188 535.203125 878.386719 532.253906 883.710938 C 530.542969 886.320312 529.03125 889.011719 526.984375 891.390625 C 525.515625 893.457031 524.386719 895.6875 522.847656 897.753906 C 521.375 899.890625 520.441406 902.34375 519.304688 904.640625 C 517.792969 907.335938 516.761719 910.203125 515.316406 912.972656 C 513.121094 916.457031 512.527344 921.101562 517.246094 922.609375 C 518.953125 923.214844 520.347656 924.289062 522.058594 924.824219 C 523.570312 925.207031 525.242188 925.320312 526.738281 924.859375 C 528.980469 923.753906 532.085938 922.289062 534.164062 924.59375 C 535.558594 926.71875 536.367188 929.21875 537.835938 931.277344 C 539.0625 932.757812 540.515625 933.976562 541.671875 935.519531 C 542.453125 936.34375 543.539062 936.835938 544.546875 937.394531 C 545.703125 937.890625 546.761719 938.734375 548 939.027344 C 552.183594 940.21875 553.09375 936.085938 553.707031 933.191406 C 555.136719 928.605469 556.363281 923.933594 557.453125 919.183594 C 558.042969 915.660156 559.179688 912.308594 559.769531 908.714844 C 560.480469 904.429688 561.125 900.070312 561.835938 895.78125 C 564.164062 883.078125 565.875 870.257812 567.234375 857.417969 C 568.351562 850.222656 568.980469 842.996094 570.304688 835.816406 C 570.933594 829.636719 571.5 823.382812 572.128906 817.203125 C 572.972656 811.949219 573.953125 806.769531 574.660156 801.503906 C 575.429688 797.363281 575.992188 793.207031 576.066406 789.015625 C 576.09375 783.425781 576.222656 777.421875 573.632812 772.355469 C 572.207031 769.671875 569.355469 768.429688 567.183594 766.464844 C 564.742188 764.339844 564.082031 761.710938 564.570312 758.597656 C 564.703125 755.597656 565.195312 752.488281 564.132812 749.617188 C 561.605469 744.625 556.609375 741 551.433594 739.039062 C 548.835938 738.164062 545.996094 737.761719 543.5625 736.546875 C 541.8125 734.542969 542.519531 731.375 542.125 728.902344 C 541.851562 725.734375 541.015625 722.605469 540.742188 719.4375 C 540.597656 716.421875 540.734375 713.355469 540.589844 710.339844 C 540.230469 707.378906 539.875 704.417969 540.429688 701.382812 C 540.480469 700.617188 540.742188 699.863281 541.332031 699.414062 C 542.378906 698.367188 543.757812 697.621094 545.191406 697.089844 C 546.605469 696.835938 548.066406 696.9375 549.417969 696.609375 C 552.210938 696.65625 554.660156 695.566406 557.300781 694.765625 C 560.074219 694.046875 563.058594 693.339844 565.886719 692.832031 C 567.589844 692.457031 568.96875 693.738281 570.464844 694.398438 C 576.035156 696.734375 579.484375 697.390625 583.867188 692.511719 C 587.816406 687.886719 587.0625 681.472656 585.046875 676.164062 C 584.101562 673.652344 583.257812 670.589844 580.992188 668.96875 C 579.933594 668.128906 578.722656 667.414062 577.253906 667.457031 C 575.375 667.328125 573.492188 667.269531 571.667969 667.355469 C 566.519531 667.007812 561.332031 667.285156 556.207031 666.589844 C 553.722656 664.042969 553.125 660.507812 552.933594 657.136719 C 552.59375 653.898438 552.394531 650.667969 551.847656 647.417969 C 551.671875 645.867188 551.636719 644.328125 551.386719 642.839844 C 551.3125 641.859375 551.589844 640.898438 552.003906 639.945312 C 552.464844 639.347656 553.300781 639.335938 553.953125 639.03125 C 554.597656 638.792969 555.1875 638.34375 555.964844 638.1875 C 560.964844 637.617188 565.984375 638.867188 570.890625 639.691406 C 577.679688 640.570312 584.519531 639.636719 591.304688 639.535156 C 595.175781 639.167969 599.074219 639.363281 602.984375 639.421875 C 607.523438 639.449219 612.027344 638.984375 616.527344 638.589844 C 622.832031 638.390625 629.867188 638.726562 635.226562 634.894531 C 640.042969 632.914062 634.722656 626.890625 640.191406 626.632812 C 641.515625 626.652344 642.59375 627.285156 643.355469 628.386719 C 645.226562 630.679688 647.613281 632.589844 650.410156 633.617188 C 654.574219 635.089844 659.527344 632.070312 661.722656 628.582031 C 662.441406 627.234375 662.960938 625.800781 663.546875 624.371094 C 666.070312 619.089844 668.070312 613.285156 672.199219 609.089844 C 673.59375 608.136719 675.3125 609.582031 676.449219 610.289062 C 680.519531 613.148438 681.433594 618.246094 683.378906 622.5 C 686.636719 630.132812 690.179688 637.644531 691.714844 645.925781 C 692.449219 649.542969 692.546875 653.253906 692.996094 656.921875 C 693.359375 658.761719 693.417969 661.003906 694.789062 662.425781 C 696.167969 663.707031 698.429688 663.371094 700.179688 663.28125 C 703.621094 663.023438 707.875 661.144531 708.546875 657.414062 C 708.230469 655.855469 708.488281 654.125 708.324219 652.4375 Z M 704.640625 657.289062 C 703 659.835938 699.625 660.167969 696.773438 659.972656 C 695.371094 654.84375 695.734375 649.484375 694.546875 644.371094 C 692.878906 636.988281 690.003906 629.941406 686.902344 623.089844 C 685.203125 619.339844 684.144531 615.351562 682.078125 611.789062 C 680.300781 609.148438 677.734375 606.808594 674.660156 605.761719 C 670.292969 604.207031 667.476562 608.628906 665.582031 611.855469 C 663.699219 614.875 662.285156 618.203125 660.808594 621.460938 C 659.683594 623.621094 659.226562 626.246094 657.5625 628.089844 C 655.699219 629.78125 652.847656 631.6875 650.367188 630.121094 C 649.15625 629.410156 647.949219 628.699219 646.96875 627.652344 C 645.730469 626.378906 644.722656 624.703125 643.027344 623.960938 C 636.960938 621.730469 632.800781 625.363281 633.695312 631.714844 C 628.464844 635.695312 621.453125 635.011719 615.214844 635.285156 C 608.9375 636.117188 602.644531 636.179688 596.300781 635.960938 C 587.910156 636.019531 579.507812 637.269531 571.179688 636.425781 C 565.9375 635.4375 560.566406 634.234375 555.214844 634.851562 C 553.660156 635.097656 551.777344 636.085938 550.195312 636.75 C 546.757812 638.960938 547.496094 643.554688 547.816406 647.074219 C 548.773438 652.519531 548.601562 658.171875 549.984375 663.507812 C 550.242188 664.855469 550.859375 666.085938 551.699219 667.121094 C 552.472656 668.082031 553.023438 669.238281 554.101562 669.800781 C 554.914062 670.207031 555.816406 670.265625 556.722656 670.328125 C 560.886719 670.75 565.089844 670.617188 569.265625 670.828125 C 571.347656 671.039062 573.464844 670.765625 575.617188 670.980469 C 576.171875 671.019531 576.796875 671.058594 577.355469 671.097656 C 577.886719 671.484375 578.425781 671.800781 578.953125 672.253906 C 580.542969 674.601562 581.261719 677.375 582.128906 680.019531 C 582.960938 683.222656 583.277344 686.808594 581.339844 689.613281 C 580.941406 690.355469 580.277344 690.871094 579.609375 691.453125 C 578.703125 692.441406 577.472656 693.058594 576.160156 692.828125 C 573.324219 692.425781 570.84375 690.859375 568.261719 689.777344 C 566.140625 689.074219 563.925781 689.832031 561.804688 690.175781 C 558.398438 690.925781 555.058594 691.746094 551.761719 692.992188 C 550.269531 693.308594 548.734375 693.277344 547.175781 693.589844 C 543.410156 693.472656 539.71875 695.390625 537.488281 698.386719 C 536.019531 701.5 536.167969 705.496094 536.566406 708.878906 C 537.015625 712.542969 536.695312 716.226562 536.9375 719.878906 C 537.1875 723.390625 538.148438 726.742188 538.402344 730.253906 C 538.589844 733.625 538.410156 738.367188 541.929688 740.074219 C 544.839844 741.457031 548.097656 741.820312 551.089844 743.070312 C 554.75 744.71875 558.003906 747.246094 560.296875 750.546875 C 562.292969 755.085938 559.421875 760.34375 561.34375 764.949219 C 562.367188 767.394531 564.328125 769.414062 566.464844 770.890625 C 567.996094 771.972656 569.671875 773.0625 570.53125 774.800781 C 571.445312 776.75 571.855469 778.945312 571.988281 781.121094 C 572.675781 787.460938 572.242188 793.863281 571.046875 800.140625 C 570.476562 804.4375 569.757812 808.863281 569.046875 813.148438 C 568.195312 817.496094 567.890625 821.949219 567.457031 826.324219 C 567.035156 831.46875 566.546875 836.609375 565.574219 841.714844 C 565.109375 845.460938 564.785156 849.214844 564.113281 852.941406 C 562.875 862.925781 561.929688 872.789062 560.269531 882.8125 C 559.128906 891.402344 557.296875 899.878906 556.085938 908.464844 C 554.867188 914.046875 553.582031 919.621094 552.222656 925.191406 C 551.726562 927.394531 551.027344 929.445312 550.324219 931.5625 C 549.804688 933.066406 549.753906 934.8125 549.035156 936.160156 C 547.25 935.691406 545.582031 934.527344 543.964844 933.648438 C 542.742188 932.097656 541.148438 930.871094 540.003906 929.1875 C 538.003906 925.695312 536.855469 921.003906 532.210938 920.410156 C 526.96875 919.421875 525.511719 924.429688 520.246094 920.644531 C 519.167969 920.082031 517.785156 919.847656 516.933594 919.023438 C 516.617188 917.464844 517.558594 915.988281 518.273438 914.710938 C 520.472656 910.105469 522.53125 905.492188 524.933594 900.96875 C 526.179688 899.097656 527.65625 896.890625 528.84375 894.871094 C 530.609375 892.546875 532.308594 890.144531 533.804688 887.660156 C 536.921875 882.90625 539.105469 877.53125 541.414062 872.304688 C 541.839844 871.214844 542.1875 870.191406 542.746094 869.179688 C 543.433594 868.316406 543.851562 867.296875 543.996094 866.1875 C 544.089844 865.847656 544.257812 865.4375 544.355469 865.023438 C 544.53125 864.476562 544.570312 863.921875 544.191406 863.335938 C 544 863.042969 543.800781 862.890625 543.53125 862.730469 C 542.214844 861.523438 540.363281 861.050781 538.628906 860.863281 C 534.863281 860.746094 530.8125 859.632812 528.140625 856.792969 C 526.492188 855.355469 525.464844 852.976562 523.1875 852.542969 C 520.523438 851.664062 517.460938 852.503906 514.804688 851.484375 C 511.84375 849.816406 510.394531 846.433594 507.355469 844.898438 C 503.832031 843.261719 500.136719 841.054688 496.140625 841.269531 C 491.21875 841.707031 489.226562 847.375 484.730469 848.746094 C 480.035156 849.964844 474.882812 850.734375 470.34375 848.609375 C 468.675781 847.449219 466.761719 846.828125 464.929688 846.003906 C 460.667969 843.898438 455.691406 841.046875 450.871094 843.09375 C 448.421875 844.1875 446.410156 846.007812 444.144531 847.460938 C 442.480469 848.328125 440.628906 848.832031 439.085938 849.914062 C 436.519531 851.699219 435 854.53125 432.371094 856.171875 C 430.070312 857.132812 427.371094 857.789062 424.890625 857.273438 C 421.953125 856.304688 419.125 854.714844 416.007812 854.292969 C 413.507812 854.054688 410.984375 854.160156 408.523438 854.414062 C 403.574219 855.265625 398.59375 855.488281 393.625 855.640625 C 391.746094 855.511719 389.285156 855.695312 387.371094 855.078125 C 383.367188 853.335938 382.671875 849.164062 383.5625 845.3125 C 383.90625 841.28125 385.105469 836.957031 383.484375 833.070312 C 382.078125 830.109375 379.308594 827.683594 375.902344 827.382812 C 374.171875 827.128906 372.328125 827.5625 370.636719 826.746094 C 367.703125 825.640625 366.871094 822.507812 366.21875 819.738281 C 365.992188 817.902344 366.269531 815.894531 365.191406 814.285156 C 363.664062 812.082031 361.089844 810.859375 359.855469 808.46875 C 358.488281 805.929688 357.5 802.996094 354.957031 801.355469 C 352.429688 799.4375 349.324219 798.875 346.453125 797.914062 C 344.179688 796.429688 342.453125 794.074219 339.789062 793.125 C 338.90625 792.785156 337.941406 792.582031 336.980469 792.304688 C 334.105469 791.414062 331.207031 790.867188 328.328125 790.042969 C 324.105469 788.425781 320.90625 786.113281 319.398438 781.605469 C 317.917969 778.710938 318.347656 775.453125 317.714844 772.402344 C 316.800781 768.355469 314.109375 764.75 310.554688 762.550781 C 308.289062 760.929688 305.550781 760.113281 302.957031 759.167969 C 301.527344 758.652344 301.078125 757.015625 300.324219 755.773438 C 299.199219 753.8125 298.09375 751.570312 295.917969 750.652344 C 292.929688 749.402344 289.648438 750.367188 286.617188 749.742188 C 282.652344 748.425781 279.210938 745.605469 274.90625 745.171875 C 272.210938 744.710938 269.023438 745.332031 266.328125 744.941406 C 263.558594 744.542969 260.972656 743.527344 258.457031 742.449219 C 253.222656 739.296875 249.140625 739.71875 243.320312 740.023438 C 240.722656 740.195312 238.796875 738.667969 236.648438 737.402344 C 234.375 735.851562 231.804688 734.628906 229.84375 732.609375 C 227.128906 730.398438 224.9375 727.660156 222.144531 725.585938 C 218.667969 723.25 213.914062 723.277344 210.234375 724.988281 C 207.488281 726.339844 206.167969 729.324219 204.335938 731.578125 C 203.195312 732.96875 201.210938 733.390625 199.460938 733.414062 C 197.5625 733.566406 195.8125 732.605469 193.933594 732.480469 C 192.058594 732.28125 190.320312 733.214844 188.492188 733.367188 C 186.234375 733.703125 184.074219 732.578125 181.773438 732.492188 C 178.449219 732.058594 175.675781 729.632812 172.261719 729.472656 C 168.167969 729.054688 163.773438 730.992188 159.957031 728.566406 C 157.390625 727.203125 155.4375 725.113281 153.699219 722.898438 C 152.140625 721.1875 149.902344 720.195312 148.566406 718.21875 C 146.238281 715.472656 146.8125 711.105469 143.675781 708.9375 C 141.808594 707.621094 139.285156 707.730469 137.132812 707.515625 C 134.640625 707.207031 132.167969 707.597656 129.671875 707.289062 C 126.023438 706.480469 122.804688 704.445312 119.324219 703.230469 C 117.355469 702.398438 115.25 701.488281 113.230469 700.371094 C 110.558594 698.511719 107.917969 696.234375 104.707031 695.179688 C 100.496094 693.355469 95.707031 693.9375 91.5 692.046875 C 86.738281 690.113281 83.75 685.789062 80.140625 682.328125 C 78.058594 680.019531 75.375 678.367188 72.996094 676.390625 C 72.9375 675.195312 73.289062 674.101562 73.574219 673.003906 C 74.292969 670.675781 74.820312 668.054688 76.082031 665.902344 C 76.476562 665.230469 76.871094 664.558594 77.335938 663.890625 C 77.875 663.15625 78.304688 662 79.363281 661.859375 C 83.175781 661.28125 85.714844 665.019531 89.332031 665.261719 C 91.898438 665.578125 93.652344 663.390625 94.96875 661.519531 C 95.363281 660.847656 95.824219 660.25 96.148438 659.574219 C 98.445312 658.679688 96.933594 652.144531 96.070312 650.410156 C 94.699219 646.960938 91.050781 645.105469 89.246094 641.839844 C 88.804688 641.109375 88.578125 640.324219 88.707031 639.496094 C 88.984375 637.417969 89.546875 635.355469 90.308594 633.382812 C 92.179688 628.472656 94.238281 622.8125 99.039062 620.0625 C 103.132812 617.402344 107.945312 615.492188 112.878906 615.898438 C 115.863281 616.167969 118.5625 617.609375 121.566406 617.605469 C 125.195312 617.710938 129.273438 617.359375 131.785156 614.3125 C 139.511719 606.515625 138.265625 603.21875 140.867188 593.746094 C 141.285156 591.675781 142.585938 590.019531 143.617188 588.199219 C 145.207031 585.371094 146.867188 582.546875 149.125 580.183594 C 151.808594 576.660156 155.214844 573.816406 157.707031 570.070312 C 159.574219 568.308594 161.707031 566.707031 162.917969 564.339844 C 164.15625 560.511719 168.746094 553.621094 166.058594 549.945312 C 164.90625 548.398438 162.773438 548.953125 161.121094 548.558594 C 156.742188 547.214844 159.746094 544.132812 157.542969 541.605469 C 155.820312 540.160156 153.9375 542.199219 152.351562 542.933594 C 151.488281 542.246094 150.554688 541.550781 150.140625 540.476562 C 149.171875 538.242188 148.78125 535.769531 148.941406 533.402344 C 149.074219 529.425781 149.898438 528.574219 153.058594 526.273438 C 155.210938 524.460938 156.855469 521.84375 156.769531 518.972656 C 157.304688 514.1875 156.511719 509.378906 155.433594 504.691406 C 154.671875 501.492188 154.257812 498.320312 153.640625 495.0625 C 153.164062 491.742188 153.675781 488.351562 153.414062 484.980469 C 153.273438 481.894531 152.710938 478.851562 151.003906 476.21875 C 149.648438 473.539062 146.761719 471.804688 145.699219 468.9375 C 145.671875 467.257812 146.304688 465.132812 147.765625 464.183594 C 149.21875 463.371094 150.882812 463.554688 152.394531 462.957031 C 157.417969 460.992188 155.789062 454.101562 154.453125 450.09375 C 153.4375 446.53125 150.972656 443.707031 149.382812 440.382812 C 148.519531 438.648438 147.878906 436.785156 147.375 434.933594 C 147.320312 433.671875 147.757812 432.375 148.121094 431.140625 C 148.535156 430.191406 149.679688 429.777344 150.300781 428.910156 C 152.039062 426.933594 151.335938 423.949219 151.5 421.511719 C 151.40625 417.730469 151.953125 413.78125 150.382812 410.179688 C 149.574219 407.679688 147.808594 403.785156 144.652344 403.988281 C 142.898438 404.082031 142.011719 405.839844 140.886719 406.949219 C 138.835938 405.273438 137.324219 402.792969 134.894531 401.511719 C 132.746094 400.246094 131.671875 399.613281 132.207031 396.855469 C 132.367188 394.488281 132.597656 392.125 132.617188 389.75 C 132.859375 384.175781 126.402344 382.476562 126.261719 377.367188 C 126.382812 375.554688 126.367188 373.738281 127.175781 372.113281 C 128.261719 369.53125 130.085938 367.347656 130.898438 364.605469 C 131.496094 361.992188 130.585938 358.921875 132.078125 356.507812 C 133.164062 357 133.621094 358.5 134.179688 359.515625 C 134.78125 360.957031 135.023438 363.558594 137.042969 363.695312 C 141.726562 363.664062 146.796875 357.925781 148.878906 354.011719 C 149.695312 352.320312 149.746094 350.503906 149.9375 348.699219 C 149.972656 348.214844 150.144531 347.734375 150.519531 347.34375 C 152.589844 345.664062 154.730469 343.992188 155.742188 341.472656 C 157.378906 338.929688 157.246094 335.773438 156.8125 332.878906 C 156.113281 327.726562 153.777344 323.023438 151.144531 318.582031 C 150.324219 317.269531 149.507812 315.882812 148.90625 314.445312 C 148.3125 312.9375 146.671875 311.355469 147.414062 309.660156 C 150.082031 309.492188 151.621094 311.554688 152.660156 313.722656 C 153.683594 315.117188 154.335938 316.839844 155.429688 318.242188 C 158.457031 322.015625 163.464844 322.355469 167.515625 324.445312 C 169.675781 325.570312 171.734375 327.179688 172.621094 329.546875 C 173.367188 330.925781 173.691406 332.34375 173.375 333.929688 C 173.269531 335.460938 173.027344 336.984375 172.578125 338.421875 C 172.101562 339.296875 171.6875 340.25 171.761719 341.230469 C 171.753906 345.425781 178.402344 348.394531 180.382812 343.914062 C 181.601562 341.410156 183.152344 339.140625 183.691406 336.378906 C 184.054688 335.144531 184.554688 333.921875 185.058594 332.695312 C 185.980469 330.453125 185.933594 328.003906 185.957031 325.625 C 185.953125 321.570312 185.988281 316.890625 183.277344 313.628906 C 181.785156 311.921875 179.410156 311.898438 177.328125 311.6875 C 177.347656 310.363281 178.121094 309.296875 179.335938 308.890625 C 182.257812 306.988281 185.960938 307.03125 188.699219 304.769531 C 194.996094 300.511719 200.136719 294.78125 204.871094 288.878906 C 205.941406 287.554688 206.878906 286.078125 207.878906 284.75 C 209.21875 283.511719 210.566406 282.203125 211.507812 280.660156 C 212.480469 278.699219 212.636719 276.402344 213.609375 274.441406 C 214.082031 273.632812 214.820312 273.054688 215.492188 272.402344 C 216.320312 271.550781 217.082031 270.621094 218.164062 270.136719 C 220.433594 268.613281 222.703125 267.089844 225.035156 265.636719 C 226.5 264.6875 228.242188 264.738281 229.878906 264.289062 C 232.089844 263.671875 234.441406 264.039062 236.632812 263.628906 C 241.496094 263.050781 244.316406 253.382812 242.5625 249.351562 C 241.765625 247.757812 239.859375 247 239.277344 245.28125 C 238.925781 244.28125 239.347656 243.191406 239.621094 242.230469 C 240.363281 239.554688 241.039062 236.804688 240.949219 234 C 240.9375 232.113281 240.300781 230.179688 240.289062 228.292969 C 241.898438 224.136719 245.945312 221.125 247.019531 216.65625 C 247.3125 215.417969 247.257812 214.15625 247.410156 212.90625 C 247.648438 211.453125 248.230469 210.097656 248.8125 208.738281 C 250.152344 205.472656 253.125 202.878906 255.667969 200.394531 C 257.53125 198.703125 258.933594 196.558594 260.859375 194.941406 C 262.480469 193.726562 264.542969 193.164062 266.101562 191.875 C 271.085938 188.4375 273.941406 182.40625 279.433594 179.703125 C 281.859375 178.960938 284.679688 179.640625 287.160156 180.160156 C 289.851562 180.691406 292.523438 181.429688 294.800781 182.914062 C 297.0625 184.605469 296.339844 188.050781 298.3125 189.863281 C 299.976562 191.09375 302.273438 190.203125 304.003906 189.410156 C 305.75 188.410156 306.507812 186.503906 307.457031 184.890625 C 308.09375 183.746094 309.195312 182.910156 310.101562 181.925781 C 312.242188 179.203125 314.339844 176.128906 314.925781 172.605469 C 315.140625 171.5 315.15625 170.242188 315.980469 169.460938 C 317.824219 168.046875 320.050781 167.148438 322.203125 166.316406 C 322.914062 166.15625 323.566406 166.828125 324.25 167.015625 C 326.507812 167.726562 328.941406 167.960938 331.199219 168.675781 C 338.1875 169.707031 345.417969 169.21875 352.355469 167.871094 C 359.859375 166.492188 365.597656 161.21875 370.972656 156.132812 C 377.09375 150.394531 383.59375 145.242188 391.246094 141.636719 C 394.839844 140.132812 398.726562 139.488281 402.375 138.265625 C 407.175781 136.496094 412.023438 134.097656 415.234375 129.980469 C 417.445312 127.265625 420.011719 124.503906 420.871094 121.066406 C 421.125 118.355469 420.28125 115.363281 424 115.125 C 426.3125 115.074219 428.832031 114.964844 431.21875 114.847656 C 436.726562 115.011719 438.492188 110.65625 440.867188 106.550781 C 442.363281 105.046875 444.570312 104.496094 446.5625 103.933594 C 451.570312 102.246094 455.394531 106.628906 459.6875 108.25 C 461.992188 109.3125 464.621094 109.703125 466.761719 111.105469 C 468.726562 113.054688 470.378906 115.476562 471.320312 118.125 C 471.691406 119.828125 471.429688 121.628906 471.171875 123.359375 C 470.820312 124.453125 469.863281 125.15625 469.042969 125.941406 C 467.421875 127.160156 465.371094 127.507812 463.75 128.726562 C 462.359375 129.683594 461.457031 130.601562 459.996094 131.550781 C 458.101562 132.679688 456.472656 134.035156 454.453125 134.949219 C 450.828125 136.871094 446.789062 137.714844 442.828125 138.425781 C 440.074219 138.796875 437.304688 138.46875 434.597656 139.195312 C 425.152344 142.46875 419.65625 151.394531 413.828125 158.96875 C 411.359375 162.4375 408.796875 166.175781 405.40625 168.8125 C 404.109375 169.355469 402.519531 169.105469 401.160156 169.574219 C 397.792969 170.8125 395.617188 174.023438 393.410156 176.667969 C 389.640625 181.796875 385.738281 186.773438 382.234375 192.058594 C 381.058594 193.9375 380.285156 196.050781 379.652344 198.175781 C 378.488281 201.941406 377.328125 205.640625 376.304688 209.414062 C 375.050781 214.503906 373.160156 219.6875 373.851562 224.976562 C 374.164062 227.585938 375.417969 229.699219 375.800781 232.308594 C 375.800781 235.386719 374.953125 238.613281 374.183594 241.707031 C 372.949219 245.46875 371.71875 249.230469 369.738281 252.664062 C 367.144531 256.890625 363.820312 260.582031 359.714844 263.378906 C 357.21875 265.164062 354.925781 268.085938 355.472656 271.339844 C 355.675781 272.472656 356.648438 273.585938 357.835938 273.597656 C 358.390625 273.632812 359.035156 273.398438 359.476562 273.078125 C 360.117188 272.914062 360.699219 272.601562 361.332031 272.503906 C 364.332031 271.589844 367.277344 270.390625 370.386719 269.902344 C 373.0625 269.597656 375.875 268.320312 378.433594 269.75 C 380.253906 270.714844 382.242188 271.265625 384.074219 272.089844 C 387.042969 274.667969 387.949219 278.855469 390.101562 282.148438 C 391.519531 284.898438 392.441406 287.828125 393.855469 290.652344 C 395.636719 294.265625 397.851562 297.703125 400.578125 300.753906 C 402.539062 302.773438 404.785156 304.675781 406.449219 306.953125 C 408.675781 310.183594 410.445312 313.9375 410.738281 317.871094 C 410.753906 319.691406 410.15625 321.328125 409.554688 322.964844 C 408.453125 325.828125 407.484375 328.765625 406.71875 331.792969 C 405.292969 339.453125 405.292969 347.703125 409.660156 354.363281 C 411.632812 357.222656 414.492188 359.375 417.214844 361.515625 C 420.515625 364.324219 423.222656 367.726562 426.226562 370.796875 C 428.378906 373.109375 430.511719 375.628906 433.347656 377.082031 C 437.558594 378.902344 442.21875 379.21875 446.730469 379.664062 C 449.78125 380.011719 452.867188 379.871094 455.90625 379.378906 C 459.734375 378.589844 463.214844 376.730469 466.863281 375.4375 C 471.480469 374.355469 476.285156 374.609375 480.84375 375.40625 C 483.195312 375.777344 485.566406 376.847656 488.03125 376.59375 C 490.632812 376.351562 492.519531 374.3125 494.824219 373.28125 C 496.695312 372.5 498.917969 371.671875 501.003906 371.8125 C 506.957031 371.65625 512 375.5625 517.839844 376.03125 C 520.742188 376.507812 523.761719 376.292969 526.730469 376.84375 C 532.589844 379.058594 537.464844 383.441406 541.546875 388.125 C 545.230469 392.570312 549.273438 396.828125 552.441406 401.65625 C 555.613281 406.414062 559.226562 410.855469 563.734375 414.445312 C 566.757812 417.238281 570.394531 419.300781 574.539062 420.003906 C 583.402344 422.210938 584.769531 412.378906 597.976562 413.414062 C 599.652344 413.457031 601.394531 413.503906 603.058594 413.6875 C 605.261719 414.1875 607.375 414.960938 609.605469 415.042969 C 612.390625 415.230469 614.921875 413.933594 617.613281 413.417969 C 620.722656 412.929688 623.292969 411.074219 626.039062 409.722656 C 628.0625 408.742188 630.410156 409.179688 632.570312 409.257812 C 635.707031 409.402344 638.957031 409.902344 642.023438 408.992188 C 645.808594 407.777344 649.335938 405.222656 653.460938 405.222656 C 659.460938 405.347656 665.660156 407.726562 669.902344 412.140625 C 670.820312 413.039062 671.886719 413.8125 672.726562 414.847656 C 673.425781 415.875 673.90625 417.023438 674.390625 418.105469 C 674.757812 418.902344 674.910156 419.75 674.78125 420.582031 C 673.921875 421.921875 673.058594 423.328125 672.269531 424.675781 C 670.464844 427.558594 668.917969 430.808594 667.175781 433.835938 C 665.90625 436.058594 665.257812 438.390625 663.984375 440.679688 C 661.238281 445.109375 655.378906 447.019531 653.628906 452.210938 C 652.152344 456.445312 652.273438 457.78125 654.457031 461.636719 C 654.871094 463.761719 654.925781 466.074219 654.429688 468.207031 C 652.113281 474.550781 648.96875 480.699219 648.09375 487.421875 C 647.652344 490.886719 647.414062 494.367188 647.25 497.851562 C 647.445312 501.148438 648.417969 504.289062 648.757812 507.53125 C 649.378906 511.765625 651.777344 515.5625 654.71875 518.558594 C 656.039062 519.699219 657.355469 520.90625 658.597656 522.179688 C 660.578125 523.851562 661.949219 526.320312 664.621094 527.132812 C 665.910156 527.707031 667.304688 527.734375 668.578125 528.519531 C 672.0625 531.761719 674.199219 536.308594 674.015625 541.121094 C 674.253906 543.792969 674.074219 546.4375 673.0625 548.957031 C 670.808594 553.347656 668.933594 558.324219 664.882812 561.40625 C 660.722656 563.988281 656.332031 566.90625 654.265625 571.589844 C 653.328125 574.113281 652.535156 577.554688 654.769531 579.664062 C 656.003906 581.007812 657.875 581.273438 659.539062 581.457031 C 665.296875 582.054688 670.703125 582.703125 673.671875 588.425781 C 675.160156 591.183594 676.359375 594.132812 678.140625 596.699219 C 680.847656 600.097656 684.296875 602.78125 686.558594 606.566406 C 688.144531 608.914062 688.441406 611.730469 689.027344 614.425781 C 689.484375 616.972656 690.296875 619.40625 691.542969 621.65625 C 693.625 625.992188 696.515625 629.753906 699.101562 633.84375 C 700.292969 635.882812 700.761719 638.222656 701.453125 640.433594 C 702.570312 643.515625 703.332031 646.714844 704.164062 649.917969 C 705.109375 652.429688 704.871094 654.929688 704.640625 657.289062 Z M 704.640625 657.289062 "/></g></g></g></g></g></svg>