<svg xmlns="http://www.w3.org/2000/svg" xmlns:xlink="http://www.w3.org/1999/xlink" width="1080" zoomAndPan="magnify" viewBox="0 0 810 1012.49997" height="1350" preserveAspectRatio="xMidYMid meet" version="1.2"><defs><clipPath id="a4302bb923"><path d="M 76 72 L 666 72 L 666 866 L 76 866 Z M 76 72 "/></clipPath><clipPath id="d0d329056a"><path d="M 97.445312 57.898438 L 684.703125 80.96875 L 653.628906 871.964844 L 66.371094 848.894531 Z M 97.445312 57.898438 "/></clipPath><clipPath id="6dcee04ced"><path d="M 97.445312 57.898438 L 684.703125 80.96875 L 653.628906 871.964844 L 66.371094 848.894531 Z M 97.445312 57.898438 "/></clipPath><clipPath id="8d5ff71853"><path d="M 97.441406 58 L 684.546875 81.0625 L 653.496094 871.53125 L 66.386719 848.464844 Z M 97.441406 58 "/></clipPath><clipPath id="2662982b19"><path d="M 284.238281 360.457031 L 375.695312 360.457031 L 375.695312 484.894531 L 284.238281 484.894531 Z M 284.238281 360.457031 "/></clipPath></defs><g id="288ef89e49"><g clip-rule="nonzero" clip-path="url(#a4302bb923)"><g clip-rule="nonzero" clip-path="url(#d0d329056a)"><g clip-rule="nonzero" clip-path="url(#6dcee04ced)"><g clip-rule="nonzero" clip-path="url(#8d5ff71853)"><path style=" stroke:none;fill-rule:nonzero;fill:#e2d0a6;fill-opacity:1;" d="M 665.964844 554.042969 L 659.253906 564.671875 C 654.800781 559.933594 650.285156 555.769531 648.984375 556.675781 C 646.066406 558.628906 627.855469 579.96875 627.855469 579.96875 L 612 562.929688 L 608.734375 580.5625 L 533.335938 577.601562 L 530.699219 607.71875 L 555.769531 610.921875 L 567.417969 625.800781 L 559.601562 631.402344 L 544.585938 621.265625 L 536.71875 628.277344 L 518.085938 629.003906 L 514.175781 667.046875 L 541.378906 684.265625 L 542.597656 703.183594 L 552.359375 716.296875 L 552.597656 722.902344 L 544.113281 732.847656 L 542.121094 753.324219 L 544.023438 760.535156 L 536.257812 770.738281 L 535.777344 795.6875 L 531.113281 802.101562 L 527.796875 836.753906 L 521.660156 849.476562 C 521.660156 849.476562 521.980469 860.761719 522.15625 862.226562 C 522.332031 863.691406 506.371094 865.75 506.371094 865.75 L 510.078125 854.3125 L 503.621094 843.972656 L 484.078125 842.550781 L 483.363281 836.3125 L 516.136719 790.925781 L 491.132812 779.164062 L 476.25 767.5 L 454.808594 773.484375 L 437.484375 766.28125 L 412.746094 780.996094 L 397.199219 777.429688 L 368.902344 783.1875 L 367.78125 754.074219 L 349.644531 750.101562 L 349.773438 730.199219 L 313.921875 712.453125 L 303.902344 693.152344 L 268.945312 669.265625 L 246.746094 677.828125 L 225.882812 652.539062 L 211.328125 649.054688 L 204.148438 657.09375 L 183.125 656.265625 L 177.363281 653.585938 L 156.339844 652.761719 L 152.589844 635.96875 L 106.277344 617.964844 L 87.0625 605.320312 L 76.21875 598.1875 L 87.152344 581.507812 L 100.859375 582.046875 L 94.429688 571.015625 L 106.898438 552.410156 L 136.136719 544.160156 L 172.5 490.363281 L 158.964844 473.648438 L 166.128906 453.371094 L 154.761719 405.941406 C 154.761719 405.941406 164.507812 395.054688 168.597656 390.496094 C 172.691406 385.941406 160.105469 382.144531 160.105469 382.144531 L 168.878906 358.023438 L 155.667969 345.730469 L 144.488281 331.597656 L 149.507812 303.417969 C 149.507812 303.417969 159.539062 309.679688 161.476562 310.253906 C 163.410156 310.785156 176.125 285.859375 176.125 285.859375 L 163.011719 271.117188 L 163.570312 256.949219 L 179.207031 269.796875 L 183.210938 280.234375 L 201.761719 294.195312 L 199.003906 276.441406 L 192.480469 256.128906 L 216.335938 247.285156 L 240.539062 216.90625 C 240.539062 216.90625 258.539062 219.566406 258.117188 217.597656 C 257.734375 215.621094 259.421875 184.355469 259.421875 184.355469 L 266.089844 165.019531 L 290.308594 145.914062 L 310.578125 141.570312 L 314.109375 151.21875 L 324.027344 154.5625 L 328.691406 141.285156 L 341.03125 125.851562 L 357.25 130.902344 L 380.863281 128.148438 L 429.328125 97.261719 L 435.042969 88.433594 L 446.554688 82.519531 C 446.554688 82.519531 459.660156 72.988281 460.644531 72.296875 C 461.671875 71.609375 483.402344 85.65625 486.992188 87.023438 C 490.617188 88.394531 475.863281 102.769531 474.78125 104.914062 C 473.738281 107.097656 447.574219 112.167969 447.574219 112.167969 L 437.109375 123.757812 L 425.199219 134.066406 L 417.527344 135.953125 L 391.886719 171.691406 L 388.324219 199.929688 C 388.324219 199.929688 366.875 228.464844 366.339844 229.441406 C 365.839844 230.378906 385.125 224.769531 385.125 224.769531 L 400.851562 236.394531 L 400.304688 256.199219 L 420.222656 272.4375 L 406.425781 287.773438 C 406.425781 287.773438 408.386719 306.222656 409.621094 306.039062 C 410.855469 305.820312 424.433594 308.808594 424.433594 308.808594 C 424.433594 308.808594 432.300781 327.257812 433.023438 327.285156 C 433.753906 327.316406 455.445312 323.757812 455.445312 323.757812 L 478.976562 329.089844 C 478.976562 329.089844 486.386719 321.058594 487.113281 321.089844 C 487.839844 321.117188 507.253906 325.792969 507.253906 325.792969 L 528.890625 329.558594 C 528.890625 329.558594 562.46875 372.984375 563.390625 373.023438 C 564.164062 372.824219 585.636719 362.160156 585.636719 362.160156 L 606.679688 368.355469 L 622.550781 362.613281 L 637.464844 363.699219 L 648.859375 359.734375 L 658.371094 379.207031 L 647.851562 385.390625 L 646.867188 398.8125 L 629.695312 412.097656 L 634.9375 452.460938 L 654.042969 496.28125 L 632.007812 527.015625 L 665.964844 554.042969 "/></g></g></g></g><g clip-rule="nonzero" clip-path="url(#2662982b19)"><path style=" stroke:none;fill-rule:nonzero;fill:#c49b53;fill-opacity:1;" d="M 329.070312 360.492188 C 331.589844 360.476562 334.210938 360.570312 336.707031 360.929688 C 342.109375 361.699219 347.15625 363.617188 351.914062 366.238281 C 356.679688 368.867188 360.777344 372.398438 364.289062 376.539062 C 368.507812 381.511719 371.746094 387.203125 373.546875 393.484375 C 374.734375 397.621094 375.367188 401.972656 375.40625 406.273438 C 375.414062 407.113281 375.457031 407.980469 375.386719 408.816406 C 375.257812 410.355469 374.925781 411.839844 374.589844 413.347656 C 373.550781 418 371.960938 422.457031 370.105469 426.84375 C 368.175781 431.398438 365.984375 435.796875 363.5625 440.109375 C 361.230469 444.257812 358.726562 448.28125 356.132812 452.269531 C 354.9375 454.109375 353.765625 455.960938 352.519531 457.765625 C 350.859375 460.167969 349.132812 462.507812 347.414062 464.863281 C 345.816406 467.054688 344.242188 469.261719 342.589844 471.414062 C 341.230469 473.183594 339.78125 474.894531 338.398438 476.652344 C 337.160156 478.222656 335.902344 479.785156 334.628906 481.328125 C 333.925781 482.175781 333.207031 483.183594 332.347656 483.882812 C 331.902344 484.246094 331.46875 484.472656 330.914062 484.628906 L 330.003906 484.742188 C 329.222656 484.765625 328.363281 484.492188 327.785156 483.957031 C 326.6875 482.941406 325.71875 481.65625 324.757812 480.503906 C 322.480469 477.769531 320.308594 474.957031 318.140625 472.136719 C 314.03125 466.789062 310 461.390625 306.230469 455.792969 C 304.863281 453.765625 303.582031 451.683594 302.261719 449.625 C 295.816406 439.546875 289.878906 428.796875 286.496094 417.269531 C 285.578125 414.144531 284.707031 410.9375 284.613281 407.667969 C 284.253906 395.453125 289.042969 383.425781 297.425781 374.582031 C 298.574219 373.371094 299.804688 372.28125 301.074219 371.210938 C 307.167969 366.070312 314.324219 362.566406 322.1875 361.140625 C 324.476562 360.726562 326.746094 360.558594 329.070312 360.492188 Z M 329.402344 384.347656 C 328.53125 384.378906 327.664062 384.402344 326.800781 384.535156 C 322.269531 385.230469 317.683594 387.5625 314.5625 390.925781 C 310.496094 395.300781 308.492188 400.824219 308.707031 406.777344 C 308.898438 412.15625 311.273438 417.457031 315.238281 421.101562 C 319.425781 424.953125 324.878906 427.195312 330.609375 426.953125 C 331.726562 426.90625 332.816406 426.84375 333.917969 426.644531 C 338.570312 425.804688 342.75 423.4375 345.945312 419.960938 C 349.878906 415.683594 351.617188 410.144531 351.363281 404.398438 C 351.125 398.976562 348.679688 393.605469 344.644531 389.960938 C 341.757812 387.347656 338.074219 385.40625 334.234375 384.683594 C 332.65625 384.382812 331.007812 384.304688 329.402344 384.347656 Z M 329.402344 384.347656 "/></g></g></svg>